<?xml version="1.0" standalone="no"?>
<!DOCTYPE svg PUBLIC "-//W3C//DTD SVG 1.1//EN" "http://www.w3.org/Graphics/SVG/1.1/DTD/svg11.dtd" >
<svg>
<metadata>
Created by FontForge 20110222 at Tue May 20 09:09:48 2014
 By Orthosie Webhosting
Generated by Fontographer 3.3
</metadata>
<defs>
<font id="JotMediumHMKRegular" horiz-adv-x="569" >
  <font-face 
    font-family="JotMediumHMKRegular"
    font-weight="400"
    font-stretch="normal"
    units-per-em="1000"
    panose-1="0 0 4 0 0 0 0 0 0 0"
    ascent="800"
    descent="-200"
    x-height="295"
    cap-height="577"
    bbox="-390 -476 1645 885"
    underline-thickness="22"
    underline-position="-132"
    unicode-range="U+0020-221A"
  />
<missing-glyph horiz-adv-x="885" 
d="M55 0v885h775v-885h-775zM775 55v775h-665v-775h665z" />
    <glyph glyph-name=".notdef" horiz-adv-x="885" 
d="M55 0v885h775v-885h-775zM775 55v775h-665v-775h665z" />
    <glyph glyph-name=".null" horiz-adv-x="0" 
 />
    <glyph glyph-name="nonmarkingreturn" horiz-adv-x="323" 
 />
    <glyph glyph-name="space" unicode=" " horiz-adv-x="323" 
 />
    <glyph glyph-name="exclam" unicode="!" horiz-adv-x="391" 
d="M231 162q0 -28 -28 -28t-28 28q0 66 110 194l210 221q27 75 68 75q31 0 31 -25q0 -32 -56 -89l-91 -93l-67 -69l-43 -46q-106 -121 -106 -168zM32 13q0 18 15.5 32.5t34.5 14.5q20 0 33 -14q14 -12 14 -33q0 -18 -12 -30.5t-35 -16.5q-18 0 -34 13t-16 34z" />
    <glyph glyph-name="quotedbl" unicode="&#x22;" horiz-adv-x="409" 
d="M444 672q26 0 26 -31l-3 -17q-10 -27 -45 -50q-37 -51 -91 -116q-5 -6 -21 -11q-27 0 -27 26q0 5 6 17l115 152q21 30 40 30zM630 672q26 0 26 -31l-3 -17q-12 -30 -44 -50l-92 -116q-5 -5 -21 -10q-27 0 -27 26l6 16l116 152q21 30 39 30z" />
    <glyph glyph-name="numbersign" unicode="#" horiz-adv-x="696" 
d="M159 265q-25 0 -25 24q0 21 21 24l169 14l82 90l67 66q6 6 16 6q15 0 23 -14l2 -10q0 -9 -9 -18q-51 -42 -112 -115l168 10q80 98 134 141q6 6 16 6q15 0 22 -13l3 -11q0 -5 -9 -16q-63 -59 -102 -106l68 -1q36 0 57 -4q26 -3 26 -23q0 -24 -29 -24l-66 2l-71 2h-26
l-66 -86l-49 -67l70 -1l62 -1q22 0 22 -22q0 -25 -25 -25h-19h-17h-15h-13h-12h-39l-39 1h-12l-122 -177q-4 -6 -19 -11q-24 0 -24 24q0 10 5 15l102 146l-176 -12l-114 -162q-6 -9 -19 -10q-25 0 -25 24q0 10 5 15l92 128l-132 -14q-26 -3 -26 24q0 21 20 24l172 18
l113 150zM408 141q48 73 112 151l-78 -3l-28 -1q-12 0 -31 -3t-32 -5l-115 -150z" />
    <glyph glyph-name="dollar" unicode="$" horiz-adv-x="678" 
d="M687 323q-26 0 -26 26q0 11 15 23q15 6 19 10t4 13q0 6 -31 18l-25 8q-23 6 -46 6l-143 -183q109 -21 109 -93q0 -56 -99 -109q-74 -35 -196 -58l-56 -91q-8 -12 -22 -12q-27 0 -27 25q0 8 4 15l33 53h-19q-25 0 -25 26q0 20 25 26l55 3l123 175q-104 9 -138 22
q-74 21 -74 70q0 68 151 131q66 26 139.5 39.5t136.5 13.5l61 64q3 3 18 8q15 0 24 -15l2 -10q0 -8 -8 -19l-33 -35q103 -18 113 -73q3 -30 -17.5 -53.5t-46.5 -23.5zM419 197l-111 -156q39 9 76 21q17 6 33 13t32 16q56 29 62 60q0 33 -92 46zM393 251q67 91 139 178
l-50 -3q-10 -1 -24.5 -4t-27.5 -7l-56 -15q-26 -9 -33 -11.5t-28 -11.5q-115 -45 -115 -76q0 -15 61 -30q5 -1 38 -6q77 -12 96 -14z" />
    <glyph glyph-name="percent" unicode="%" horiz-adv-x="830" 
d="M157 -14q59 62 134.5 128.5t180.5 149.5l274 210q6 6 15 6q15 0 22 -17l2 -10q0 -11 -10 -18l-273 -209q-196 -155 -312 -272q-6 -6 -17 -7q-23 0 -23 23q0 9 7 16zM144 165l-28 3q-11 3 -19 14q-11 16 -11 41q6 56 90 148q37 40 71 67q14 12 33 25q13 9 33 22
q9 18 31 18q12 0 27 -18q76 -36 76 -94q0 -60 -127 -144q-67 -44 -101 -60q-49 -22 -75 -22zM505 -55q-33 0 -45.5 17t-12.5 41q8 60 89 149q68 71 137 113q11 18 32 18q12 0 27 -18q76 -36 76 -94q0 -60 -127 -144q-66 -45 -101 -60q-49 -22 -75 -22zM137 212q43 0 153 72
t110 109q0 20 -57 56q-48 -27 -128.5 -110.5t-80.5 -119.5l1 -5zM498 -8q43 0 153 72t110 109q0 24 -57 57q-27 -16 -57 -43l-70 -67q-82 -85 -82 -121l1 -4z" />
    <glyph glyph-name="ampersand" unicode="&#x26;" horiz-adv-x="700" 
d="M321 97q0 15 11 26l13 6l18 2q20 0 24 -2l20 -7l183 24q141 16 184 16t71 -17q15 -9 15 -25q0 -15 -12 -24l-13 -5q-7 0 -16 5q-23 10 -46 10q-53 0 -282 -31l4 -13q0 -9 -9 -18q-48 -45 -147 -78q-53 -16 -95 -24l-44 -6l-46 -2q-123 0 -135 76l-1 12q0 45 57 88t175 78
q-75 27 -75 94q0 90 185 172q73 31 157 52q42 10 77.5 15t71.5 5q93 0 112 -55l4 -23q0 -36 -37 -72q-4 -3 -20 -8q-13 0 -22 8q-5 6 -8 21q0 6 9 20q21 21 19 37q-3 16 -57 16q-56 0 -123.5 -14.5t-148.5 -49.5q-163 -69 -163 -124q0 -27 48 -44.5t97 -17.5h11l19 2
q13 1 22.5 -6.5t12.5 -24.5q0 -22 -28 -32q-64 0 -125 -16q-48 -12 -115 -42q-22 -9 -26 -11t-19 -11q-19 -9 -30 -22q-23 -21 -23 -43q0 -24 79 -24q67 0 145.5 22.5t125.5 54.5l-24 -3l-28 -1q-45 0 -52 34z" />
    <glyph glyph-name="quotesingle" unicode="'" horiz-adv-x="220" 
d="M431 672q26 0 26 -31l-3 -17q-10 -27 -45 -50q-37 -51 -91 -116q-5 -6 -21 -11q-27 0 -27 26q0 5 6 17l115 152q21 30 40 30z" />
    <glyph glyph-name="parenleft" unicode="(" horiz-adv-x="608" 
d="M220 55q0 -81 99 -129q15 -6 15 -22q0 -14 -11 -22l-14 -4l-12 2q-62 24 -95.5 69.5t-33.5 105.5q0 33 6.5 62t25.5 65q34 70 94 144q54 66 121 127q64 57 145 113q146 98 247 118l22 2q33 0 54 -21l7 -18q0 -15 -14 -23l-13 -3q-7 0 -14 6t-35 6q-17 0 -41 -7.5
t-51 -21.5q-57 -28 -133 -83q-146 -103 -253 -228q-56 -66 -88 -129q-13 -30 -21 -57q-3 -13 -5 -25t-2 -27z" />
    <glyph glyph-name="parenright" unicode=")" horiz-adv-x="609" 
d="M87 -83l-75 -36l-46 -14l-39 -5q-21 0 -21 25q0 27 29 27q16 0 44 11l34 14q11 4 23.5 9t29.5 14q185 87 337 243q73 76 112 144.5t39 127.5q0 81 -72 135q-12 8 -12 21q0 14 14 22l14 4q6 0 14 -4q47 -30 70 -74q24 -42 24 -104q0 -69 -42.5 -147t-123.5 -162
q-143 -149 -353 -251z" />
    <glyph glyph-name="asterisk" unicode="*" horiz-adv-x="421" 
d="M528 458l-79 2l-61 1l51 -119l2 -11q0 -18 -21 -24q-21 -3 -28 15l-40 118l-86 -123q-4 -7 -20 -11q-27 0 -27 25l6 16l93 114l-60 -3l-73 -2q-24 0 -24 24q0 25 24 25l79 -2l64 -1l-52 118l-2 11q0 14 20 23q17 3 29 -15l40 -117l86 122q4 7 20 11q15 0 23 -14l4 -12
q0 -6 -6 -15l-90 -112l56 3l72 3q24 0 24 -26q0 -24 -24 -24z" />
    <glyph glyph-name="plus" unicode="+" horiz-adv-x="570" 
d="M457 139l-148 2l-5 -135q0 -24 -27 -24q-25 0 -25 27q2 21 4 54t2 78q-30 0 -62 -0.5t-65 -1.5q-29 0 -29 25q0 20 26 25q35 0 68.5 1t64.5 2l4 143q0 27 26 27t26 -27q0 -70 -7 -143l80 -2l68 -1q25 0 25 -24q0 -26 -26 -26z" />
    <glyph glyph-name="comma" unicode="," horiz-adv-x="259" 
d="M84 44q0 -32 -53 -85q-40 -40 -100 -80l-14 -4q-9 0 -15.5 6t-11.5 22q0 15 15 24q51 28 104 88q5 37 8 40q9 25 29 25q38 0 38 -36z" />
    <glyph glyph-name="hyphen" unicode="-" horiz-adv-x="509" 
d="M124 219l139 4l128 1q31 0 31 -30q0 -20 -28 -26l-227 -3q-32 -17 -55 -17q-44 0 -44 32q0 39 56 39z" />
    <glyph glyph-name="period" unicode="." horiz-adv-x="259" 
d="M-10 26q0 16 15 31t34 15q20 0 33 -13t13 -33q0 -18 -12.5 -32t-33.5 -14q-18 0 -33.5 12.5t-15.5 33.5z" />
    <glyph glyph-name="slash" unicode="/" horiz-adv-x="528" 
d="M-148 -94q88 96 210 207q64 58 126.5 111t136.5 111l415 318l14 5q15 0 22 -16l2 -11q0 -6 -9 -17l-413 -315q-141 -111 -261 -219q-29 -26 -56.5 -51.5t-54.5 -52.5q-57 -56 -99 -102q-4 -4 -17 -8q-23 0 -23 24q0 9 7 16z" />
    <glyph glyph-name="zero" unicode="0" horiz-adv-x="601" 
d="M596 303q-6 -69 -111 -159q-82 -70 -214 -140q-67 -34 -110.5 -49t-68.5 -15q-45 0 -63 24q-12 17 -12 63q0 45 38 103q19 31 46.5 63.5t67.5 73.5q108 108 223 190q6 22 30 22l9 -1l10 2q20 0 29 -22q54 -28 86 -58q21 -21 30 -46q4 -11 7 -24.5t3 -26.5zM87 -4
q23 0 50.5 7t60 22.5t68.5 36.5l86 55q91 60 139.5 109t48.5 88q0 23 -24.5 48.5t-84.5 53.5q-84 -51 -212 -179q-146 -148 -146 -214q0 -19 2 -22q2 -1 3 -1q8 -4 9 -4z" />
    <glyph glyph-name="one" unicode="1" horiz-adv-x="423" 
d="M246 -32l-247 -27q-38 -23 -59 -23q-36 0 -36 40q0 24 67 36q13 2 42 -21.5t40 -25.5q17 3 17 64q47 158 308 422q-7 0 -19 6q-9 9 -9 21q0 9 11 20q43 35 86 35q30 0 39 -29q3 -18 -28 -53l-177 -188q-110 -128 -150 -233l109 12q31 3 31 -28q0 -24 -25 -28z" />
    <glyph glyph-name="two" unicode="2" horiz-adv-x="570" 
d="M196 447l116 38q66 17 119 17q66 0 119 -31q61 -37 61 -95q0 -63 -112 -138q-71 -45 -247 -128q-85 -39 -139 -65.5t-71 -38.5l-28 -15q36 0 174 12l46 1l44 1l95 6q28 0 28 -30q0 -26 -29 -26l-95 -6l-85 -3l-90 -3l-89 -8h-19h-14l-19 3q-9 0 -17.5 10.5t-11.5 29.5
q3 35 82 78l329 161q212 108 212 159q0 23 -39 50q-37 20 -85 20q-38 0 -78 -10q-38 -8 -92 -27l-20 -20q-10 -8 -32 -14q-46 0 -52 30q-3 27 39 42z" />
    <glyph glyph-name="three" unicode="3" horiz-adv-x="584" 
d="M408 508q215 0 215 -107q0 -32 -69 -74l-146 -64l-110 -43l18 -2q127 -18 127 -88q0 -42 -48 -81q-41 -34 -141 -71q-154 -53 -276 -53h-12l-22 3q-16 2 -16 25q0 15 11 25q6 6 16 6q9 0 12 -2l22 -2q42 0 104 12l63 15q20 5 34 9.5t38 13.5q159 53 159 100q0 20 -78 32
h-30h-28l-15 2l-58 6q-29 5 -29 33q0 24 20 31l218 79q63 23 126 57q54 27 54 33q0 16 -49.5 32.5t-109.5 16.5l-71 -3l-89 -10q-18 -18 -41 -32q-20 -9 -44 -9q-42 0 -42 41q0 23 24 35l53 14l65 12q35 4 68.5 6t76.5 2z" />
    <glyph glyph-name="four" unicode="4" horiz-adv-x="584" 
d="M199 -83q24 80 124 218q-13 0 -40 -1t-41 -1h-33.5t-30.5 -2l-101 -5l-23 3l-18 5q-13 10 -13 27q0 13 8 21q129 130 332 242q78 43 148 72t108 29q52 0 52 -38q0 -20 -16 -39l-212 -253l30 1l29 1q29 0 29 -27q0 -28 -29 -28l-55 -2l-49 -2q-123 -150 -144 -236
q-5 -21 -27 -21q-29 0 -29 27zM109 181l261 12l232 276l-42 -12q-12 -3 -25.5 -9t-24.5 -11q-51 -21 -123 -63q-158 -86 -278 -193z" />
    <glyph glyph-name="five" unicode="5" horiz-adv-x="608" 
d="M711 433l-89 1l-66 1l-153 3q-96 -63 -162 -144h25q27 0 39.5 -1t40.5 -8t64 -24q67 -34 67 -88l-1 -11q-12 -102 -141 -171q-55 -29 -115 -45q-33 -8 -60 -12t-59 -4q-82 0 -136 36q-41 29 -41 64q0 17 25 26q24 3 30.5 -18t41 -36.5t80.5 -15.5l56 3q11 1 25.5 4
t27.5 7q55 16 106 47q105 62 105 120q0 27 -47 48q-19 8 -49 16q-13 3 -28 5t-31 2l-38 -1q-15 0 -26 -4q-12 -3 -24 6t-12 27q0 47 93 134q75 66 146 101l13 3q9 0 20 -10l273 -5q29 0 29 -29q0 -27 -29 -27z" />
    <glyph glyph-name="six" unicode="6" horiz-adv-x="596" 
d="M558 167q0 -56 -159 -143q-75 -39 -146.5 -63t-122.5 -24q-54 0 -84 33q-24 27 -24 70q0 48 37 107l-2 11q0 12 13 22l21 10q71 89 200 181q116 82 212 126q64 29 89 29q14 0 25 -11q12 -9 12 -27q0 -30 -37 -34h-20q-10 0 -21 4l-26 -11q-40 -19 -80.5 -42t-81.5 -51
t-80 -59.5t-83 -71.5q119 29 204 29q53 0 98 -18q56 -23 56 -67zM78 40q0 -23 8 -31q11 -15 44 -15l29 1l33 6q17 4 37 10t43 16q47 19 84 37.5t75 43.5q72 44 72 59l-6 5l-20 12q-32 12 -73 12q-111 0 -282 -55q-44 -59 -44 -101z" />
    <glyph glyph-name="seven" unicode="7" horiz-adv-x="506" 
d="M139 452l66 16l71 12l82 8l82 3q70 0 98 -11q42 -12 42 -45q0 -31 -90 -109l-198 -151q-99 -75 -173 -146t-74 -93q0 -7 4 -12l5 -9q0 -21 -24 -27t-33 19l-4 25q0 57 85 139q38 37 181 148l173 133q83 64 91 75q-19 8 -83 8q-119 0 -248 -27q-18 -33 -50 -37
q-22 0 -34 11t-12 34q2 15 17 25z" />
    <glyph glyph-name="eight" unicode="8" horiz-adv-x="614" 
d="M610 305l-88 -37l-110 -40q86 -27 86 -105q0 -68 -132 -127l-59 -20l-61 -17q-68 -13 -121 -13q-67 0 -103.5 22t-36.5 68q0 57 66 110q37 29 149 71q-43 29 -43 80q0 85 152 152q56 23 121.5 39t128.5 16q41 0 66 -11q37 -15 37 -44q0 -32 -29 -49l-48 -19q-6 -3 -14 -3
q-29 0 -29 29q0 11 15 22l40 15l-38 4q-93 0 -215 -46q-131 -51 -131 -105q0 -23 15 -32.5t63 -16.5l152 50q84 30 144 57l13 3q17 0 26 -21q6 -17 -16 -32zM125 2q48 0 99 9q25 5 50.5 12t55.5 19q112 42 112 81q0 29 -40 50q-24 8 -105 19q-115 -32 -188 -75
q-69 -39 -69 -80q3 -35 85 -35z" />
    <glyph glyph-name="nine" unicode="9" horiz-adv-x="572" 
d="M524 458q-19 0 -36 -2t-39 -8q-34 -7 -92 -30q-87 -36 -158.5 -84t-71.5 -69l25 -2l30 1l34 7l105 26l96 25l48 10l41 5q29 0 47.5 -9t26.5 -30l-3 -29q-9 -21 -74 -67l-137 -94q-166 -122 -166 -165q0 -28 -30 -28q-20 0 -26 26q0 45 58 104q36 36 130 106l182 130
q-52 -6 -190 -42l-102 -24q-22 -4 -38 -6t-32 -2l-25 1q-13 2 -28 10q-29 15 -29 46q0 69 167 158q79 41 154.5 66.5t132.5 25.5q26 0 43 -2.5t35 -10.5q42 -18 42 -60q0 -36 -37 -74l-18 -7q-29 0 -29 27q0 11 10 21q18 18 18 32q-3 18 -64 18z" />
    <glyph glyph-name="colon" unicode=":" horiz-adv-x="259" 
d="M-27 17q0 17 15.5 32t33.5 15t32 -14t14 -33q0 -18 -14 -32q-12 -14 -32 -14q-18 0 -33.5 12.5t-15.5 33.5zM158 241q0 17 15 32t34 15q18 0 32 -14q14 -12 14 -33q0 -19 -13.5 -32.5t-32.5 -13.5q-16 0 -32.5 12.5t-16.5 33.5z" />
    <glyph glyph-name="semicolon" unicode=";" horiz-adv-x="261" 
d="M89 44q0 -31 -53 -85q-40 -40 -100 -80l-14 -4q-27 0 -27 28q0 15 16 24q51 30 103 88q5 36 8 40q9 25 30 25q37 0 37 -36zM263 274l5 -20q0 -25 -20 -42q-16 -14 -34 -14q-10 0 -19 5q-20 11 -20 35q0 23 17 39q6 5 13 9q12 7 25 7q21 0 33 -19z" />
    <glyph glyph-name="less" unicode="&#x3c;" horiz-adv-x="566" 
d="M159 149l124 -57l123 -58q17 -6 17 -26t-20 -20q-15 0 -147 63l-98 44q-78 38 -78 56t30 31l148 52l159 52l17 3q24 0 24 -23q0 -18 -22 -28l-140 -45q-60 -17 -72 -21q-41 -15 -65 -23z" />
    <glyph glyph-name="equal" unicode="=" 
d="M463 185q-8 0 -36 1.5t-38 1.5l-96 3q-39 0 -77.5 -0.5t-75.5 -0.5q-12 0 -19.5 7t-9.5 20q0 17 24 20l102 3h103h14h27q-2 1 -3 2q114 0 114 -32q0 -25 -29 -25zM444 75l-94 2l-115 2h-53t-62 -4q-29 0 -29 27q0 20 24 23l155 2l99 -1h75q27 0 27 -26q0 -22 -27 -25z
" />
    <glyph glyph-name="greater" unicode="&#x3e;" horiz-adv-x="566" 
d="M391 137l-124 56l-124 56q-17 7 -17 26q0 21 23 21q18 0 145 -62l99 -44q79 -38 79 -56q0 -19 -30 -31.5t-69.5 -25.5t-99.5 -33q-25 -6 -70 -22t-68 -23l-18 -3q-23 0 -23 22q0 20 21 28l139 46q44 11 137 45z" />
    <glyph glyph-name="question" unicode="?" horiz-adv-x="517" 
d="M247 548q59 29 155 51q15 4 39.5 8t53.5 9q47 6 92 6q74 0 124 -22q28 -12 47 -34l10 -17q6 -11 6 -29q0 -48 -87 -99q-27 -15 -186 -84l-132 -57q-65 -29 -97 -54q0 -6 4 -13l8 -19q0 -17 -19 -24l-11 -2q-9 0 -20 10q-17 22 -17 50q0 30 22 46q55 37 241 113l87 36
q20 9 39 18.5t40 22.5q72 41 72 58q0 12 -34 28q-21 8 -43.5 12t-53.5 4l-70 -3q-17 -2 -28 -3t-41 -7l-35 -7t-39 -10q-38 -9 -77 -25q-15 -32 -49 -41l-12 -1q-24 0 -31 29q-3 23 42 50zM78 17q0 18 15 33t34 15q20 0 34 -14t14 -34q0 -19 -14 -33t-34 -14q-19 0 -34 14
q-15 12 -15 33z" />
    <glyph glyph-name="at" unicode="@" horiz-adv-x="1052" 
d="M806 80q4 -1 13 -1q28 0 65 17q44 22 78 62q74 83 74 189q0 114 -99.5 193t-243.5 79q-219 0 -395 -133.5t-176 -328.5q0 -152 114 -226q45 -30 107 -46t137 -16q78 0 154.5 19t166.5 62q14 8 15 23q0 28 -25 28l-12 -3q-162 -78 -299 -78q-130 0 -208 50q-99 61 -99 187
q0 172 163 295q157 115 357 115q120 0 205.5 -62.5t85.5 -157.5q0 -83 -59 -151t-110 -68q-21 0 -24 22q0 33 -1 49t-6.5 57t-45.5 41q-17 0 -29 -8l-154 -106q-55 -35 -94 -54t-58 -19l-8 3q0 39 98 132t160 107l12 -6q13 -8 20 -11t14 -4q29 0 29 32q0 42 -50 42
q-33 0 -68.5 -14t-77.5 -45q-71 -50 -129 -121.5t-58 -108.5q0 -26 15 -42q17 -15 43 -15q57 0 188 86l143 101q0 -36 7 -106q8 -51 65 -60z" />
    <glyph glyph-name="A" unicode="A" horiz-adv-x="1000" 
d="M1064 582q0 -39 -82 -169l-150 -240q-77 -130 -86 -190q30 16 81 55l18 7q15 0 26 -17l3 -11q0 -9 -11 -20q-83 -71 -132 -71q-42 0 -42 58q0 56 103 229l-75 3l-71 6l-62 4l-59 1h-13q-13 0 -27.5 -0.5t-35.5 -7.5q-13 -4 -26 -10.5t-25 -15.5l-132 -96l-124 -94
l-117 -91q-6 -8 -27 -18q-16 0 -25 8q-11 6 -11 24q0 29 39 68l19 5l21 -3l279 209l-94 -3l-62 -2l-14 -7q-33 -9 -75 -9q-30 0 -30 24q0 12 8.5 23.5t27.5 17.5l105 8l110 2l98 3q537 378 614 378q23 0 39.5 -15.5t16.5 -42.5zM999 582q-22 0 -169 -92l-48 -30l-57 -38
l-111 -76l-119 -84l330 7l122 191q51 82 59 115q0 6 -7 7z" />
    <glyph glyph-name="B" unicode="B" horiz-adv-x="802" 
d="M45 26l-5 22l4 21q21 64 139 216l224 279q-146 -18 -238 -51q3 -6 3 -14q0 -22 -24 -28h-20q-13 0 -17 2q-30 6 -30 37q0 21 22 33q97 56 354 83l8 10l9 11q5 6 22 11q24 0 28 -25l106 2q300 0 300 -139q0 -62 -104 -117q-69 -36 -228 -87l-149 -41q97 -15 143 -44
q61 -35 61 -95q0 -71 -171 -139q-159 -58 -275 -58t-116 60q0 15 14 28q13 10 32 10q34 0 43 -30v-11l27 -1l53 3l63 10q67 12 135 40q139 53 139 88q0 72 -264 99l-11 5l-3 3q-15 -3 -24.5 6t-10.5 23q0 21 22 27q123 29 180 44q38 10 96.5 27t112 36.5t95.5 40.5
q85 41 85 72q0 35 -62 62q-71 22 -183 22h-39q-22 0 -31 -2l-75 -6l-242 -300q-124 -163 -146 -223l2 -11q0 -21 -22 -27q-17 -6 -32 16z" />
    <glyph glyph-name="C" unicode="C" horiz-adv-x="718" 
d="M695 445q15 18 31 65.5t16 78.5q0 23 -3.5 30.5t-27.5 11.5q-37 0 -89.5 -26.5t-123.5 -79.5q-139 -104 -257 -241q-56 -68 -87 -128.5t-31 -102.5q0 -38 16 -54q10 -10 31.5 -18.5t51.5 -8.5l15 -1q67 0 195 67q116 62 163 106q9 9 21 9q15 0 26 -17l4 -14q0 -5 -9 -16
q-60 -54 -176 -115q-143 -75 -241 -75q-75 0 -117 42q-36 35 -36 94q0 53 33 122q17 35 42 71.5t59 76.5q115 146 269 252q79 56 138 85t102 29q38 0 67 -30q21 -26 21 -70l-3 -35l-5 -28q14 -9 14 -24q0 -9 -6 -18q-21 -33 -61 -76q-5 -5 -22 -10q-11 0 -20 8q-3 4 -8 20
q0 11 8 20z" />
    <glyph glyph-name="D" unicode="D" horiz-adv-x="1015" 
d="M483 491q-18 -27 -60 -39h-14q-169 -199 -293 -424l-10 -19q64 -29 158 -29q134 0 287.5 56.5t260 139t106.5 162.5q0 130 -157 203q-63 27 -149.5 42t-188.5 15q-114 0 -185 -10t-137 -37q-14 -57 -54 -57q-15 0 -35 9q-16 10 -16 33q0 47 140 86l60 12l75 11
q72 9 152 9q113 0 203 -14.5t164 -46.5q184 -83 184 -255q0 -105 -118 -205q-105 -87 -278 -148q-85 -29 -165 -45.5t-149 -16.5q-54 0 -103 9t-88 30q-25 13 -25 40q0 14 18 50q99 180 213 330q63 83 110.5 124t73.5 41q27 0 27 -30q0 -15 -7 -26z" />
    <glyph glyph-name="E" unicode="E" horiz-adv-x="733" 
d="M548 52l10 1q20 0 28 -24q3 -24 -22 -33q-249 -75 -383 -75q-149 0 -149 101q0 132 306 212q-112 32 -112 119q0 54 54 105q25 24 67.5 50t97.5 51q93 39 192 66t181 27q65 0 102 -14.5t46 -50.5l3 -22q0 -48 -44 -88q-3 -3 -19 -8q-12 0 -21 9t-9 21q0 7 9 19
q25 22 25 44l-1 10q-3 24 -91 24q-156 0 -349 -89q-187 -83 -187 -154q0 -45 79 -67q29 -8 73 -12l93 -4q34 0 34 -29q0 -22 -28 -29q-137 -14 -261 -55q-185 -57 -185 -133q0 -47 94 -47q86 0 367 75z" />
    <glyph glyph-name="F" unicode="F" horiz-adv-x="612" 
d="M328 573q-83 0 -167 -21q-45 -39 -77 -33q-21 3 -34 19l-7 18q0 17 21 28q54 21 120 33t144 12q40 0 66 -2t55 -9q51 -9 93 -36q73 -46 73 -123q0 -20 -11 -43.5t-40 -60.5q-34 -43 -115 -111h114q28 0 28 -28t-28 -28h-178q-144 -120 -213 -195q-107 -114 -129 -211
q-5 -21 -27 -21q-12 0 -20.5 9t-8.5 25q21 95 119 206q58 67 192 187l-37 -2l-70 -11l-51 -6q-43 0 -43 37t84 37l90 1l93 1l82 69l56 53q57 59 57 93q0 51 -65 82t-166 31z" />
    <glyph glyph-name="G" unicode="G" horiz-adv-x="927" 
d="M39 14q12 82 160 237q135 144 301 262q84 61 151 94l57 24q13 4 23 6t23 2q70 0 70 -83q0 -36 -24 -93.5t-76 -131.5l28 8l26 6q28 0 49 -24q14 -22 14 -53q0 -52 -34 -122t-103 -164q-124 -171 -288 -310q-177 -147 -281 -147q-25 0 -50.5 27t-25.5 51t25 28
q24 3 30 -23.5t21 -26.5q87 0 251 140q145 125 271.5 294t126.5 254q0 15 -6 20q-24 0 -116 -52l-8 -13q-12 -15 -32 -12l-239 -154q-85 -53 -156.5 -84.5t-109.5 -31.5q-30 0 -56 17q-23 18 -23 45zM95 10q0 -6 6 -9l16 -3q61 0 227 104l277 176l95 141q26 44 39 80t13 54
q0 27 -14 30q-58 6 -225 -118q-80 -59 -151 -121q-63 -54 -140 -133q-143 -146 -143 -201z" />
    <glyph glyph-name="H" unicode="H" horiz-adv-x="918" 
d="M478 508l-17 -25l-22 -37q-6 -14 -32 -14l-60 -74l-52 -70l68 3l54 5l154 14q15 0 57.5 2t54.5 2l81 5q149 230 237 310q43 38 59 49q31 22 60 22q25 0 43 -18q5 -7 10 -28l2 -27q0 -13 -2 -21.5t-9 -21.5q-11 -22 -34 -48q-2 -3 -18 -8q-13 0 -22 8.5t-9 20.5q0 10 8 18
q24 27 31 68q-18 6 -79 -55q-94 -97 -208 -267h17q21 0 21 -17q0 -15 -14 -35q-10 -13 -25 -13q-10 0 -21 4l-16 4q-112 -178 -171 -322q-6 -18 -24 -18q-28 0 -28 28q0 7 2 11q46 120 153 298l-472 -33q-75 -113 -106 -215q-6 -20 -27 -20q-31 0 -31 28l2 10q39 109 89 188
l-10 2l-18 3h-17l-43 3q-28 8 -28 33q0 12 9 21t27 9l14 -1l46 -10l61 4q102 156 217 262l18 7q15 0 23 -14l4 -13q0 -9 -7 -17z" />
    <glyph glyph-name="I" unicode="I" horiz-adv-x="474" 
d="M510 570l18 7q20 0 29 -21l86 7q10 0 19.5 -8t12.5 -23q0 -20 -25 -26l-133 -10q-238 -233 -355 -471l127 3q28 0 28 -26q0 -30 -28 -30l-77 -4l-95 -4q-24 -14 -100 -29q-17 -3 -38 6t-21 28q0 24 24 35l66 12l52 6q95 214 333 470l-88 -3q-30 0 -30 27q0 23 30 29l34 1
l37 1q15 0 34.5 1t40.5 4z" />
    <glyph glyph-name="J" unicode="J" horiz-adv-x="927" 
d="M609 133q-80 -45 -228 -45q-162 0 -270 36q-135 42 -135 129q0 48 31 92t100 95q115 80 301 145l82 24l85 20q88 16 144 16q92 0 148 -36.5t56 -102.5q0 -135 -170 -371q-134 -184 -328 -374q-182 -174 -232 -174q-27 0 -41 17q-9 15 -9 40q0 37 62 108q5 6 22 11
q15 0 24 -15l4 -13q0 -9 -7 -17l-29 -37l-16 -33q33 5 200 170q178 175 311 355q75 104 114 189.5t39 143.5q0 39 -33 60q-14 9 -44 16q-15 3 -32 5t-39 2l-64 -3q-36 -3 -40 -4q-19 -5 -28 -6q-65 -12 -151 -39q-157 -49 -278 -129q-126 -86 -126 -157q0 -38 109 -77
q13 -4 45.5 -10.5t66.5 -12.5l63 -5l65 -2h11q42 0 65 4l39 5l27 8q6 13 12.5 18t30.5 13q22 0 34 -3q23 -9 23 -32q0 -16 -14 -24z" />
    <glyph glyph-name="K" unicode="K" horiz-adv-x="879" 
d="M95 -14q16 -13 16 -29q0 -14 -18 -31q-18 -12 -40 -12q-31 0 -31 34q0 13 5 22q55 127 192 293l48 55l54 58q29 30 57.5 58t64.5 60l124 112q5 6 21 11q15 0 25 -16l4 -13q0 -9 -7 -17l-143 -132q-139 -130 -239 -251l152 32q68 15 126.5 39t128.5 61q167 86 350 238
l18 7q15 0 24 -18l2 -11q0 -11 -10 -21q-290 -246 -584 -338q148 -33 276 -157q9 -9 9 -20q0 -15 -17 -25l-13 -4q-7 0 -19 9q-83 77 -181 118q-43 17 -97 28q-22 4 -50.5 7t-52.5 3q-30 0 -69 -6l-14 -4q-10 0 -18 11q-52 -71 -94 -151z" />
    <glyph glyph-name="L" unicode="L" horiz-adv-x="595" 
d="M513 85q19 0 26 -25q3 -22 -21 -32l-151 -42q-23 -6 -48.5 -11t-65.5 -12q-26 -4 -47 -6t-44 -2q-114 0 -114 74q0 92 224 334l-2 6v5q0 10 19 23l15 8q14 7 21 14q54 60 233 233q12 12 29 9q20 -3 20 -21t-19 -41q-133 -151 -223 -218l-155 -174q-105 -126 -105 -178
q0 -18 57 -18q63 0 198 36t153 38z" />
    <glyph glyph-name="M" unicode="M" horiz-adv-x="1099" 
d="M-2 -74q-8 55 166 288q80 107 146 183t118 119q21 18 39 18q10 0 19 -5q18 -9 18 -34l-27 -159l-16 -99q-6 -48 -6 -81l3 -22q52 17 227 129l186 118l128 79l66 39q52 25 74 25q15 0 25 -11q11 -9 9 -24q0 -18 -28 -50q-92 -102 -173 -230q-93 -150 -93 -243
q0 -28 -29 -28q-27 0 -27 28q0 93 84 245q32 55 72 110.5t89 112.5l-41 -23q-38 -21 -114 -70q-85 -54 -226 -148q-91 -58 -151 -88t-88 -30q-49 0 -49 81q0 74 42 299q-55 -49 -178 -205.5t-181 -257.5q8 -7 13 -24q0 -15 -13 -25l-18 -25q-14 -16 -30 -19q-33 0 -36 27z
" />
    <glyph glyph-name="N" unicode="N" horiz-adv-x="944" 
d="M15 -55q38 130 208 357q89 120 155.5 183t107.5 63q19 0 33.5 -5.5t24.5 -20.5q25 -37 51.5 -262t31.5 -237q49 95 186.5 278.5t217.5 262.5l18 7q13 0 26 -16l4 -13q0 -7 -9 -19q-102 -105 -225 -271q-65 -88 -105.5 -150t-70.5 -118q-15 -30 -45 -30q-26 0 -41 30
q-5 17 -16 83l-25 176q-27 220 -46 249q-43 12 -206 -196q-144 -187 -209 -326q30 0 30 -29q0 -21 -22 -27l-25 -11l-12 -2q-39 0 -39 32q0 10 2 12z" />
    <glyph glyph-name="O" unicode="O" horiz-adv-x="815" 
d="M672 636q46 0 79.5 -12.5t61.5 -41.5q22 -25 32.5 -53t10.5 -63q0 -59 -31 -122.5t-96 -137.5q-110 -126 -266 -220q-71 -43 -141 -69.5t-118 -26.5q-72 0 -111 51q-30 44 -30 106q0 52 18 103q9 26 24 53t38 58q76 109 204 187q-9 12 -6 23q12 57 123 113
q47 20 102.5 36t105.5 16zM119 47q0 -24 4.5 -41.5t13.5 -30.5t27 -21t40 -8q43 0 100 21.5t129 67.5q147 90 255 210q57 64 84.5 122t27.5 99q0 54 -33.5 84t-94.5 30q-32 0 -40 -2q-11 0 -40 -7t-79 -29q-85 -37 -111 -68q27 0 27 -29q0 -15 -15 -24q-122 -60 -215 -178
q-40 -52 -60 -104t-20 -92z" />
    <glyph glyph-name="P" unicode="P" horiz-adv-x="817" 
d="M66 -51q24 0 28 -22q0 -16 -2 -20q0 -6 -7 -17q-11 -15 -29 -18q-30 -3 -43 24q-6 14 -6 31l1 14q15 92 177 287l72 80l95 101l116 118q17 17 38 17q28 0 28 -29q0 -9 -9 -26q-11 -14 -38 -23q-129 -126 -237 -252q-158 -184 -184 -265zM485 624q170 0 274 -42
q125 -54 125 -182q0 -102 -184 -187q-79 -35 -172 -61l-87 -16q-44 -6 -85 -6h-19l-55 3q-24 3 -24 28q0 10 8.5 19t24.5 10l65 -4h33q25 3 37 4q15 0 33 3.5t38 9.5q67 15 158 54q173 74 173 145q0 166 -343 166q-108 0 -205 -16q-90 -12 -144 -33l-12 -36q-11 -20 -33 -20
q-13 0 -28 12q-10 13 -10 31l3 19q15 38 146 71q64 14 131 21l71 5z" />
    <glyph glyph-name="Q" unicode="Q" horiz-adv-x="780" 
d="M808 500q0 -105 -112 -251q-93 -118 -236 -227q9 -80 42 -110q12 -9 12 -22q0 -15 -15 -24l-13 -3q-9 0 -18 6q-35 25 -59 118q-60 -39 -118 -63.5t-100 -24.5q-66 0 -103 46q-29 38 -29 95q0 63 36 138q18 38 43 76q22 34 63 83q123 150 263 235l10 5q39 39 97 64l25 9
l29 8l37 4l18 1q66 0 103 -58q25 -42 25 -105zM191 -45q71 0 208 93l-1 38v38v25l3 33q3 22 13 32.5t28 13.5q32 0 32 -42q0 -16 -12 -31l-7 -5q0 -18 -2 -24v-21v-19q112 87 201 202.5t98 213.5l-3 40q-3 15 -12 32q-20 33 -57 33l-24 -1q-9 0 -27 -6q-20 -3 -27 -8
l-28 -12q-53 -27 -79 -66q-6 -14 -23 -14l-13 2q-61 -40 -120 -96q-27 -25 -56 -58t-55 -67q-53 -67 -86 -134q-27 -59 -27 -107q0 -85 76 -85z" />
    <glyph glyph-name="R" unicode="R" horiz-adv-x="860" 
d="M13 -45q18 84 154 244q106 125 256 257l22 18l14 8l17 5q9 0 18 -6q18 -14 18 -30q0 -17 -18 -32t-48 -24l-8 -1q-48 -41 -106 -99q-53 -53 -107 -116q-135 -156 -156 -237q-6 -22 -28 -22q-12 0 -21.5 9.5t-6.5 25.5zM528 -43q-9 42 -95 113q-82 65 -110 65l-10 -3
l-6 -2q-12 0 -20 14l-7 29q3 34 37 34l32 1h28q15 3 34.5 5t85.5 17q155 29 251 71q66 27 99.5 57.5t33.5 64.5t-20.5 59t-71.5 51q-97 44 -252 44q-209 0 -393 -74q-18 -45 -43 -45l-25 1l-16 9q-16 13 -16 31t19 28q207 106 474 106q180 0 293 -57q54 -28 81.5 -65
t27.5 -83l-1 -15q-12 -108 -206 -180q-67 -23 -146 -42l-102 -19l-79 -13q57 -30 111.5 -87.5t67.5 -104.5q3 -15 -6 -24q-6 -9 -22 -10q-19 0 -28 24z" />
    <glyph glyph-name="S" unicode="S" horiz-adv-x="724" 
d="M628 572q-45 0 -65 -1t-52 -7q-58 -6 -128 -25q-58 -15 -112 -34.5t-98 -42.5q-90 -45 -90 -76q0 -14 30 -37q22 -14 77 -26l154 -19q23 0 43 -2.5t45 -7.5q38 -5 60 -13q108 -30 108 -113q0 -98 -193 -173q-40 -15 -79.5 -26.5t-84 -21.5t-87.5 -15t-88 -5q-29 0 -29 29
q0 27 29 27q137 0 306.5 63t169.5 122q0 36 -67 57l-54 11l-84 12l-101 10l-59 9q-61 11 -103 41q-49 34 -49 78q0 84 199 163q100 39 200.5 59t201.5 20q94 0 159 -25q79 -29 79 -90q0 -50 -69 -85q-6 -3 -14 -3q-26 0 -26 27q0 15 17 25q36 17 36 36q0 21 -56 39l-23 7
l-39 7q-30 6 -64 6z" />
    <glyph glyph-name="T" unicode="T" horiz-adv-x="390" 
d="M57 -31q0 70 130 255q114 165 228 282q8 9 20 9q14 0 26 -16l4 -13q0 -5 -9 -19l-48 -52l-51 -61l-51 -65l-53 -71l-52 -75l-40 -63q-33 -56 -45 -94q21 0 32 -18l2 -15q0 -21 -16 -33.5t-33 -12.5q-44 0 -44 62zM890 569q-50 18 -104 18q-80 0 -324.5 -36t-323.5 -36
h-35l-17 4q-24 5 -24 34q0 15 15 27t35 12q34 0 57 -20q36 0 306 39l186 24l67 6l58 2q81 0 126 -23q12 -5 17 -24q0 -12 -12 -24q-7 -5 -16 -5q-7 0 -11 2z" />
    <glyph glyph-name="U" unicode="U" horiz-adv-x="884" 
d="M483 579q-6 -62 -103 -193l-175 -223q-92 -119 -92 -160l1 -6l3 -3q41 0 186 100l63 43l91 65l119 89q175 127 215 150l28 13l25 5q18 0 34.5 -12.5t16.5 -30.5q0 -9 -5 -17l-84 -130q-63 -99 -103 -176q13 -16 13 -38q-3 -24 -17 -43.5t-36 -19.5q-35 0 -35 39
q0 21 12 54q39 102 181 307q-19 -10 -72.5 -47.5t-142.5 -102.5l-163 -119l-117 -81q-158 -105 -209 -105q-18 0 -27 5q-7 2 -20 15q-13 20 -13 45q0 51 100 191l177 228q93 123 93 160q0 12 -29 12q-28 0 -47 -9t-41 -28q-6 -6 -16 -6q-11 0 -20 8.5t-9 19.5t11 21
q56 50 126 50q39 0 62 -19q19 -16 19 -51z" />
    <glyph glyph-name="V" unicode="V" 
d="M356 525q0 -18 -22 -47q-48 -65 -137 -232q-92 -181 -92 -249q0 -15 7 -16q40 0 162 115l256 253q172 166 287 244l13 4q18 0 28 -19l3 -12q0 -13 -14 -21q-52 -33 -122 -93.5t-162 -149.5l-265 -260q-64 -58 -111.5 -87.5t-74.5 -29.5q-30 0 -49 22q-15 20 -15 50
q0 17 4 39.5t13 47.5l22 58q14 36 16 41q11 20 15 29q27 60 57 114q12 23 30.5 55.5t34.5 56.5l-7 19q0 34 26 64t55 38q11 0 25 -8t17 -26z" />
    <glyph glyph-name="W" unicode="W" horiz-adv-x="1131" 
d="M414 448l-66 -75l-144 -188q-64 -90 -89 -156q46 30 202 152q136 105 225 158q37 20 77 26q21 0 34 -16l8 -15q3 -7 5 -25q-3 -24 -44.5 -127.5t-41.5 -140.5q0 -18 3.5 -22t26.5 -10q8 0 18.5 1t24.5 4.5t45 17.5q51 21 133 75q143 94 259 209q57 56 86 99t29 69
q-6 37 -17 45q-10 10 -47 10q-31 0 -31 28q0 24 25 28l19 2q44 0 79 -33q28 -31 28 -79q0 -38 -33 -91q-17 -26 -41.5 -55.5t-59.5 -64.5q-117 -120 -271 -217q-87 -53 -145 -78.5t-100 -25.5q-23 0 -36 5q-13 3 -28 18q-23 23 -23 65q0 51 40 149l45 117l-19 -6
q-10 -3 -20 -11q-62 -32 -215 -151l-203 -155l-24 -15l-27 -8q-12 0 -16 2q-6 0 -17 11q-14 16 -14 37q0 72 94 203l165 202q-4 7 -8 19q0 9 10 19q33 32 66 48l14 4q16 0 29 -19l2 -12q0 -12 -12 -27z" />
    <glyph glyph-name="X" unicode="X" horiz-adv-x="547" 
d="M423 18l16 5q16 0 26 -22q6 -18 -13 -32q-45 -24 -80 -24q-60 0 -99 61q-29 43 -41 136q-133 -100 -202 -176q-58 -64 -58 -88q0 -27 -26 -27q-30 0 -30 32q0 46 79.5 129.5t230.5 197.5q0 188 75 332q8 15 23 15t25 -14l5 -14l-4 -15q-25 -47 -47 -115l-15 -72
q-5 -38 -5 -75l97 70l139 97l183 126q2 14 10 22q26 18 77 42l16 4q17 0 28 -21l2 -12q0 -10 -12 -22l-228 -157l-145 -101l-167 -119q0 -43 6 -73q3 -16 8 -29t15 -29q26 -49 61 -49q22 0 50 17z" />
    <glyph glyph-name="Y" unicode="Y" horiz-adv-x="841" 
d="M434 533q-9 -35 -165 -253q-142 -196 -142 -247l3 -6l6 -1q16 0 29 4q17 3 41 15t54 29t61 37l257 181q149 107 225 151l24 10l24 3q26 -3 26 -51q0 -73 -164 -288q-76 -104 -159.5 -198t-172.5 -174q-45 -42 -96 -82q-37 -29 -84 -61q-37 -23 -72 -36q-6 -2 -25 -7.5
t-34 -5.5l-25 1q-7 0 -18 7q-14 6 -31 27q-19 30 -19 71q0 37 11 62q9 24 28 37l16 5q17 0 28 -24q6 -24 -18 -33q-9 -23 -9 -47q0 -25 5.5 -34.5t31.5 -15.5q30 0 78 25t113 79q124 100 255 250q122 137 204 256q74 109 96 166q-33 -19 -112 -73l-202 -145
q-135 -99 -227 -148q-23 -12 -43 -21t-37 -15q-37 -13 -59 -13q-23 0 -47 18q-18 18 -18 44q0 22 14.5 58t48.5 93l48 73l74 102q83 113 106 151q-34 -21 -53 -26q-27 0 -27 27q0 15 11 23l29 17l26 16q22 11 41 15q21 3 33 -10q12 -11 13 -28z" />
    <glyph glyph-name="Z" unicode="Z" horiz-adv-x="634" 
d="M244 563q34 7 70 12t99.5 12t131.5 7q83 0 135 -23.5t52 -63.5q0 -38 -50 -87q-31 -31 -100 -82q-12 -9 -55 -38q-66 -45 -113 -75q-302 -192 -340 -221l100 23l97 18l47 5l44 2q47 0 70 -4q33 -3 67 -17q18 -6 18 -26q0 -14 -11 -24q-6 -6 -15 -6l-11 2q-29 9 -57.5 14
t-60.5 5q-38 0 -79 -5.5t-56 -8t-52 -12.5q-108 -27 -142 -27q-15 0 -35 9q-16 10 -16 29q0 28 50 63l115 79q33 22 93 60q99 62 117 74q108 68 179 119q76 54 108.5 85t30.5 48q-3 12 -42 21l-40 6l-48 2q-96 0 -201 -18q-24 -15 -68 -34l-21 1l-20 7q-22 9 -22 28
q0 31 31 41z" />
    <glyph glyph-name="bracketleft" unicode="[" horiz-adv-x="518" 
d="M586 628l-55 -13q-249 -319 -421 -674q-10 -23 -12 -36q0 -13 24 -16.5t26 -15.5q0 -10 -16 -23t-32 -13q-56 0 -56 40q0 19 17 64q45 104 175 314q143 230 241 352q-3 2 -5 10q0 20 43 38q20 22 40 22q8 0 12 -6l36 9q24 3 24 -17q0 -23 -41 -35z" />
    <glyph glyph-name="backslash" unicode="\" horiz-adv-x="370" 
d="M355 -93q0 -24 -24 -24q-21 0 -25 18q-24 147 -73 344.5t-85 297.5q-17 6 -23 22q-3 6 0.5 16t16.5 17l15 4q10 0 31 -30q23 -56 80 -278q30 -116 51.5 -213.5t35.5 -173.5z" />
    <glyph glyph-name="bracketright" unicode="]" horiz-adv-x="520" 
d="M559 582q-37 -118 -171 -348q-122 -207 -219 -332q3 -3 3 -10q0 -23 -37 -39q-18 -21 -39 -21q-8 0 -12 5l-34 -8q-26 -6 -26 18q0 23 37 33q26 5 50 13q258 332 399 689l5 25q0 31 -27 28t-27 12q0 10 14.5 23t30.5 15q62 0 62 -54q0 -15 -1.5 -23t-7.5 -26z" />
    <glyph glyph-name="asciicircum" unicode="^" horiz-adv-x="259" 
d="M474 485q3 -29 18 -49q6 -6 7 -17q0 -15 -15 -21q-11 -3 -26 6l-22 51l-109 -57l-10 -2q-20 0 -20 24q0 15 14 23q18 6 46 20t73 39l17 5q23 0 27 -22z" />
    <glyph glyph-name="underscore" unicode="_" horiz-adv-x="519" 
d="M517 -124h-311l-206 -1q-24 0 -24 24t24 24h144l371 2q26 0 26 -25q0 -24 -24 -24z" />
    <glyph glyph-name="grave" unicode="`" horiz-adv-x="259" 
d="M347 501l82 -107l5 -14q0 -11 -16 -23l-9 -2q-9 0 -19 10l-82 109l-4 12q0 15 16 22l10 3q7 0 17 -10z" />
    <glyph glyph-name="a" unicode="a" 
d="M52 12q44 0 169 82l171 117q14 9 33 9q38 0 49 -36l5 -66q0 -25 1 -35.5t7 -25.5l1 -10q0 -27 -23 -27q-29 0 -35.5 26.5t-6.5 59.5l-3 57l-160 -111l-66 -40l-58 -31q-55 -25 -83 -25q-30 0 -47.5 17.5t-17.5 45.5q0 38 62.5 116t145.5 139l43 28l44 22q40 17 75 17
q56 0 56 -48q0 -35 -33 -35q-20 0 -37 17l-14 6q-69 -15 -177.5 -117.5t-108.5 -148.5z" />
    <glyph glyph-name="b" unicode="b" horiz-adv-x="524" 
d="M497 289q0 -41 -29 -89.5t-85 -101.5q-90 -90 -177 -126q-21 -7 -32 -7t-19 4q-15 8 -15 24q0 12 9.5 20.5t28.5 8.5l11 1q68 26 156 119q101 99 96 147q0 25 -36 25q-60 0 -145.5 -47t-143.5 -116q-18 -28 -34 -83q-5 -19 -25 -19q-29 0 -29 26l1 9q39 118 119 245
q105 168 259 307q9 9 22 9q12 0 22 -11q7 -7 7 -26q-3 -18 -30 -39l-33 -23q-124 -124 -207 -259q56 39 111.5 61t105.5 22q34 0 63 -23.5t29 -57.5z" />
    <glyph glyph-name="c" unicode="c" horiz-adv-x="485" 
d="M57 0q0 -17 15 -23q21 0 52.5 9.5t79.5 33.5l88 45l97 57l14 4q14 0 26 -21l2 -10q0 -12 -14 -23q-118 -71 -206 -111t-139 -40q-36 0 -57 27q-14 22 -14 53q9 104 130 231q59 62 116 96t105 34q33 0 57 -23.5t24 -58.5q0 -10 -9 -24q-9 -11 -27 -16q-25 0 -41 29l-3 14
q0 11 10 21l-12 2q-57 9 -179 -115q-54 -56 -84.5 -106.5t-30.5 -84.5z" />
    <glyph glyph-name="d" unicode="d" horiz-adv-x="586" 
d="M19 16q0 47 30.5 101t88 114.5t108.5 93t92 32.5q55 0 74 -77q3 -10 -6 -23q-4 -3 -22 -8q-19 0 -28 24q-6 24 -19 28q-50 0 -159 -113q-51 -53 -77 -97t-26 -74q3 -14 12 -19q23 0 55 16.5t85 55.5q130 97 285 280q91 140 164 217q5 5 21 10q16 0 24 -14l5 -14
q0 -8 -5 -16q-19 -31 -173 -230q-49 -78 -76 -146t-27 -114q0 -38 18 -61q5 -5 10 -21q0 -15 -16 -24l-14 -3q-9 0 -17 7q-37 31 -37 102q0 52 26 116q-223 -217 -328 -217q-29 0 -52 24q-16 22 -16 50z" />
    <glyph glyph-name="e" unicode="e" horiz-adv-x="448" 
d="M105 -9l13 -1q27 0 75 12q60 15 61 22q0 21 24 21q11 0 25 -12q2 -2 5 -15l-4 -16q-34 -67 -201 -67q-33 0 -58 16q-28 20 -28 64q0 43 32 93.5t94.5 113t118 97t97.5 34.5q26 0 48.5 -18.5t22.5 -47.5q0 -16 -5 -29t-9 -20t-12 -18q-24 -33 -74.5 -68.5t-94.5 -55
t-85 -19.5q-24 0 -44 10q-33 -45 -33 -72q0 -9 7 -17zM374 288q-2 9 -16 9q-30 3 -97 -47t-122 -116l15 -3q51 0 137.5 63t82.5 94z" />
    <glyph glyph-name="f" unicode="f" horiz-adv-x="343" 
d="M324 226q-39 0 -117 -9l-52 -82l-70 -115l-32 -56l-10 -38q-3 -25 -28 -25q-28 0 -28 31q3 32 16 59l33 57l89 148l-17 -4q-28 0 -28 30q0 14 18 25l72 19q102 144 178 217q109 103 198 103q22 0 47.5 -6.5t25.5 -64.5q-3 -27 -30 -27q-20 0 -26 27v12l-17 2
q-58 0 -132 -62q-35 -30 -75 -76t-89 -113l71 4q31 0 31 -29q0 -27 -28 -27z" />
    <glyph glyph-name="g" unicode="g" horiz-adv-x="533" 
d="M362 305q-34 6 -171 -104t-137 -159q0 -9 24 -9q23 0 62 12q21 6 42 15t50 23q57 28 159 88q22 11 40 11q18 -3 30 -21l6 -16l2 -18q-27 -139 -215 -339q-166 -178 -314 -257q-11 -7 -26 -7q-26 0 -51 34l-4 15q0 18 18 27l11 2q12 0 20 -11l5 -4l4 -4q135 72 298 250
q155 168 194 283l-157 -84l-96 -39q-48 -16 -76 -16h-11h-8q-5 2 -7 2q-13 0 -27 11q-29 17 -29 52q0 73 146 195q76 64 131 94t89 30q28 0 46.5 -17t18.5 -44q0 -34 -35 -78q-9 -12 -22 -12q-10 0 -19 8q-3 4 -8 21q0 5 6 17q18 24 22 41z" />
    <glyph glyph-name="h" unicode="h" horiz-adv-x="634" 
d="M519 211q0 -25 -7 -59l-6 -51q0 -20 23 -37q12 -9 12 -22q0 -15 -14 -25l-14 -5q-7 0 -15 5q-48 33 -48 83l13 118q-61 0 -206 -80q-138 -75 -206 -146l-11 -18q-8 -17 -26 -17q-30 0 -30 27q0 7 4 15q44 95 200 302q164 221 250 278q10 5 42 5q26 0 26 -27
q0 -29 -28 -29l-16 -1q-49 -40 -161 -172l-87 -112l-84 -118q38 25 82 50.5t97 50.5l43 19l46 16q46 13 68 13q24 0 40 -19l8 -17q3 -8 5 -27z" />
    <glyph glyph-name="i" unicode="i" horiz-adv-x="284" 
d="M94 6q3 -16 -4.5 -24.5t-24.5 -11.5q-17 0 -29 31q0 14 -2 18v18v16q0 46 53 109l93 103q9 9 20 10q15 0 25 -17l4 -14q0 -6 -8 -17l-87 -96q-43 -52 -43 -79v-23zM254 418q0 18 15 33t35 15q19 0 33 -14t14 -34q0 -19 -14 -33q-12 -14 -33 -14q-18 0 -35 13
q-15 14 -15 34z" />
    <glyph glyph-name="j" unicode="j" horiz-adv-x="310" 
d="M-22 -43q27 36 52.5 71t52.5 75q42 62 92 145q-3 4 -8 20q0 30 21 57t49 31q13 2 24.5 -7.5t11.5 -26.5q0 -13 -5 -21q-94 -188 -246 -379q-91 -112 -165 -178q-39 -33 -79.5 -52.5t-74.5 -19.5q-39 0 -66 26.5t-27 66.5q0 15 2 19q3 25 28 25q28 0 28 -30q0 -26 9 -41
q4 -4 27 -10q22 0 49 14q27 12 65 44q74 59 160 171zM278 502q0 18 15 33t35 15q15 0 31 -14.5t16 -33.5t-14 -33t-33 -14q-18 0 -35 13q-15 14 -15 34z" />
    <glyph glyph-name="k" unicode="k" horiz-adv-x="582" 
d="M453 -73q-52 41 -115 73q-34 14 -58 21t-43 7l-10 2l-16 -4q-28 0 -28 30q0 18 17 25q72 23 174.5 95t108.5 103q-6 3 -22 3q-60 0 -150 -35q-37 -11 -73 -27q-33 -12 -59 -28q-63 -91 -146 -234q-8 -15 -23 -15q-30 0 -30 29q0 6 4 14q70 136 190 297q41 56 58 78
q14 18 34 43l79 94l33 33q13 10 36 17q11 0 23 -12q9 -12 6 -24q-3 -17 -27 -43l-47 -36l-17 -11l-111 -143q139 59 220 59q31 0 54.5 -12.5t23.5 -38.5q0 -95 -226 -216q81 -25 174 -101q6 -5 11 -21q0 -17 -14 -25l-13 -4q-10 0 -18 7z" />
    <glyph glyph-name="l" unicode="l" horiz-adv-x="284" 
d="M222 275q-129 -185 -129 -302q0 -12 21 -24q12 -6 13 -22q0 -15 -13 -25q-2 -2 -15 -5l-14 3q-48 23 -48 72q0 115 97 270l-2 10q0 9 8 20l39 44q105 150 249 297q12 12 27 12q10 0 21 -8q11 -6 11 -20q0 -6 -6 -20q-38 -68 -259 -302z" />
    <glyph glyph-name="m" unicode="m" horiz-adv-x="866" 
d="M8 6l64 77q53 70 84 143q6 17 25 17q15 0 24 -12l4 -14q0 -9 -5 -18q101 71 174 71q36 0 62.5 -28t26.5 -62q0 -37 -5 -51q62 56 112.5 85.5t87.5 29.5q101 0 101 -193q0 -27 -29 -27q-27 0 -27 28q0 136 -45 136q-35 0 -101 -48q-57 -41 -152 -141q-5 -7 -23 -11
q-27 0 -27 25q0 5 6 17l14 29l12 32l14 44q6 24 6 44q0 17 -5.5 23t-28.5 12q-39 5 -115 -43q-63 -38 -131 -103l-81 -96q-5 -6 -22 -11q-27 0 -27 26q0 9 7 19z" />
    <glyph glyph-name="n" unicode="n" horiz-adv-x="692" 
d="M217 313q9 9 22 10q15 0 25 -16l5 -18l-3 -17q-15 -37 -68 -65q-18 -21 -42 -57l-50 -76q127 98 217 147q100 53 169 53q26 0 37 -5q15 -3 29 -17q27 -24 27 -62q0 -30 -15 -78l-14 -53q26 -3 26 -26q0 -20 -21 -29l-14 -2q-20 0 -34 13q-10 13 -13 31q0 41 14.5 83
t14.5 61q0 28 -35 28q-37 0 -95 -26q-33 -13 -64 -32q-33 -18 -78 -48q-140 -89 -175 -132q-15 -18 -32 -18q-11 0 -23 9q-9 9 -12 26q0 52 84 172q61 88 118 144z" />
    <glyph glyph-name="o" unicode="o" horiz-adv-x="466" 
d="M96 -78q-33 0 -59 16q-32 20 -32 64q0 71 74.5 164.5t161.5 105.5q30 66 110 66q42 0 65 -21.5t23 -57.5q0 -43 -31 -93q-16 -25 -38 -51.5t-55 -61.5q-62 -63 -117 -97t-102 -34zM97 -22q53 -9 171 110q59 59 87 101.5t28 68.5q-3 21 -33 24q-51 0 -69 -58
q-5 -17 -26 -17q-8 0 -20 9q-42 0 -110 -86q-64 -82 -64 -127q0 -14 36 -25z" />
    <glyph glyph-name="p" unicode="p" horiz-adv-x="530" 
d="M-136 -322q27 -18 27 -47q0 -36 -41 -36q-46 0 -46 58q0 25 10 51q45 128 133 262l31 47l39 55q39 54 90 114l137 163q5 5 21 10q24 0 28 -22q121 53 173 53q29 0 57 -14.5t28 -56.5q0 -39 -39 -92t-116 -118q-134 -114 -244 -156l-16 -3q-29 0 -29 28q0 15 14 28t42 25
l44 11q100 58 189 142q99 92 99 139q0 5 -31 11l-18 -1q-8 0 -23 -5l-32 -10l-40 -16q-86 -36 -137 -76q-128 -155 -187 -238q-105 -151 -163 -306z" />
    <glyph glyph-name="q" unicode="q" horiz-adv-x="530" 
d="M119 -371q31 -16 31 -46q0 -12 -12 -26q-8 -5 -28 -10q-23 0 -41 24q-10 18 -10 42q0 35 15 80q8 22 19.5 46t27.5 52q57 99 175 235l-66 -33l-61 -26q-52 -20 -92 -20q-32 0 -54 19t-22 49q0 23 9 50q5 16 11 27.5t17.5 28.5t22 31t26.5 32t20 22q8 9 45 44l70 61
q31 25 65 46q60 36 112 36q19 0 30 -5q13 -4 28 -21q24 -27 24 -66q0 -45 -39 -90q-5 -5 -21 -10q-29 0 -29 27q0 10 7 18q26 31 26 55q0 32 -28 36q-40 5 -127 -62q-82 -62 -148 -140q-31 -37 -49 -70q-9 -18 -12.5 -29t-3.5 -21q0 -6 4 -10l16 -2q48 0 152.5 51t167.5 99
q7 6 20 7q11 0 19 -7q16 -13 16 -28q0 -5 -9 -19l-42 -44l-44 -49l-91 -113q-138 -180 -147 -271z" />
    <glyph glyph-name="r" unicode="r" horiz-adv-x="453" 
d="M462 239q0 -35 -36 -35q-25 0 -46 17q-30 -9 -72 -33l-44 -27q-14 -8 -24 -15t-28 -20q-114 -77 -155 -142q-9 -17 -38 -17q-27 0 -27 28l3 14l36 81l23 50l15 31q53 109 96 152q21 19 47 19q26 -5 26 -33q-3 -27 -50 -59l-17 -9l-68 -127q70 59 163.5 113t127.5 54
q68 0 68 -42z" />
    <glyph glyph-name="s" unicode="s" horiz-adv-x="440" 
d="M152 216q16 -3 32 -5t34 -2h40h11.5t22.5 -4q33 -3 57 -27q22 -19 22 -50q0 -37 -30.5 -68.5t-99.5 -63.5t-128 -48l-45 -8l-48 -3q-38 0 -38 29q0 24 26 28l49 3q10 1 24.5 4t26.5 7q51 14 108 39q99 42 99 79q0 15 -27.5 21t-80.5 6q-43 0 -70 6q-57 15 -57 65
q0 33 32 65t93 60t125 45.5t124 17.5q19 0 33.5 -9.5t14.5 -29.5q0 -17 -15 -38q-15 -17 -33 -17q-17 0 -29 4l-21 10l-17 15q-88 -12 -169.5 -51.5t-81.5 -71.5l7 -4z" />
    <glyph glyph-name="t" unicode="t" horiz-adv-x="349" 
d="M448 306l-78 -3l-94 -2q-193 -235 -193 -319l1 -11h22q41 0 47 -31q0 -25 -45 -40l-10 -1q-26 0 -46 16q-25 22 -25 60q0 93 177 326l-42 -4q-23 -14 -43 -14q-10 0 -25 9q-13 10 -13 23q0 7 4 15q9 23 50 23l113 4l54 62l56 61l34 34l15 11l24 15l12 2q14 0 29 -15
l5 -17q0 -9 -7 -20q-16 -25 -93 -73l-54 -59l124 4q29 0 29 -26q0 -30 -28 -30z" />
    <glyph glyph-name="u" unicode="u" horiz-adv-x="608" 
d="M464 58l3 -36l-1 -23q-6 -32 -33 -38q-13 0 -22 8q-9 6 -12 22q0 70 34 147q-90 -60 -209.5 -114t-168.5 -54q-24 0 -40 17q-4 5 -7 13q-6 13 -6 27q0 22 13.5 49.5t43.5 67.5l94 117l3 19l9 34q8 23 39 23q10 0 16 -5q20 -12 20 -31q0 -15 -40 -68l-95 -121
q-47 -64 -47 -86q29 0 87 22.5t155 73.5q183 99 187 134q0 23 31 23q8 0 22 -6q15 -11 15 -29q0 -11 -8 -20q-56 -66 -83 -166z" />
    <glyph glyph-name="v" unicode="v" horiz-adv-x="453" 
d="M72 17q21 16 63 52q49 42 115 100l250 214q8 6 16 6q14 0 26 -18l3 -13q0 -9 -11 -20l-127 -111l-146 -125l-167 -139q-14 -11 -31 -11l-11 1q-9 0 -18 16q-20 9 -20 41q5 40 31.5 103t78.5 161q18 35 46 35q15 0 24 -12q2 -2 5 -16q0 -10 -2 -12q-9 -22 -31 -53l-22 -25
q-51 -111 -72 -174z" />
    <glyph glyph-name="w" unicode="w" horiz-adv-x="750" 
d="M344 237q19 14 33 14q9 0 17 -5q19 -11 19 -49l-10 -100q0 -69 22 -69q39 0 132 81t132 144l-3 19l2 18q6 26 33 26q12 0 24 -9q13 -13 13 -29q0 -18 -19 -50q-49 -83 -143 -162q-109 -94 -171 -94q-78 0 -78 125l1 39v22l4 15l-101 -87q-73 -61 -127 -97
q-44 -25 -60 -25q-25 0 -36 17t-11 41q0 50 53 134q46 71 97 114q9 9 38 22q14 3 26 -8q8 -5 14 -24q0 -19 -24 -34l-39 -16q-28 -22 -65.5 -89.5t-43.5 -95.5q19 10 56 37t88 70z" />
    <glyph glyph-name="x" unicode="x" horiz-adv-x="466" 
d="M267 59l9 1q21 0 27 -21q6 -23 -17 -33q-36 -12 -50 -12q-31 0 -47 32q-3 12 -13 75q-93 -54 -142 -112l-1 -23q0 -14 -5 -32q-3 -20 -36 -20t-33 40q8 89 212 210v21v14l-2 13l-6 37q-27 0 -27 30q0 13 8 21q18 15 33 15q30 0 39 -45l8 -76l91 47l143 77l15 4
q14 0 26 -21l1 -10q0 -15 -14 -23l-62 -36l-72 -36l-124 -62l10 -86z" />
    <glyph glyph-name="y" unicode="y" 
d="M103 67q13 -2 139 83q145 97 206 120l18 3q15 0 32 -12q12 -12 15 -29q0 -54 -82 -184q-86 -139 -200 -256q-132 -140 -255 -198l-20 -5q-27 0 -33 25q-3 16 24 38q16 11 53 17q124 74 284 270q131 167 169 273q-41 -18 -191 -118q-54 -37 -100 -62q-39 -21 -61 -21
q-30 0 -47.5 18.5t-17.5 48.5q0 39 24.5 89.5t73.5 116.5q4 6 21 11q15 0 25 -14l3 -13q0 -9 -6 -18q-41 -59 -63 -102t-22 -70q0 -7 11 -11z" />
    <glyph glyph-name="z" unicode="z" horiz-adv-x="478" 
d="M136 24q-11 -3 -22 5q-9 10 -15 26q-3 26 20 37l156 70q99 50 99 79q0 34 -59 34q-90 0 -182 -39q-6 -3 -14 -3q-26 0 -26 27q0 15 17 26q96 45 205 45q48 0 81.5 -21.5t33.5 -64.5q0 -51 -70 -99q-46 -30 -136 -66q35 -12 57 -43q11 -15 17 -32t6 -38q0 -33 -26 -62
q14 -9 14 -26q0 -14 -18 -26l-88 -28q-132 -86 -235 -105l-25 -1l-34 -1q-30 0 -30 32q0 18 26 32q53 24 277 97q83 54 83 87q0 64 -68 64q-15 0 -44 -6z" />
    <glyph glyph-name="braceleft" unicode="{" horiz-adv-x="518" 
d="M663 689q13 0 13 -13q0 -12 -13 -25t-30 -13q-21 0 -39 -0.5t-36 -6.5t-38 -45l-36 -103q-21 -70 -41 -104q-37 -67 -99 -98l-26 -11q4 -4 5 -7t3.5 -8t4.5 -24q0 -9 -1.5 -18.5t-9.5 -25.5q-21 -41 -81 -106l-98 -108q-8 -12 -18 -28t-20 -34q0 -16 12 -25q11 -4 35 -8
q6 0 8 -9q0 -14 -15 -28q-14 -17 -31 -14q-18 0 -29.5 4t-21.5 12q-15 13 -15 45q11 44 60 101l89 96q51 56 70 96q6 9 9 21l3 21l-11 17q-4 6 -15 12q-6 2 -9 15q0 25 36 34q19 4 33 9.5t33 16.5q26 14 49 51q20 37 43 103q10 31 21 62q8 24 15 37q24 71 85 96q34 14 77 14
q19 0 29 -1z" />
    <glyph glyph-name="bar" unicode="|" horiz-adv-x="287" 
d="M284 625q0 -8 -16 -24q-9 -100 -12 -151t-3 -112q0 -80 -1 -130q-4 -199 -4 -220q3 -22 -27 -22q-21 0 -24 19q0 34 4 174t4 193q0 85 6 165q2 31 10 100q9 43 40 38q23 -7 23 -30z" />
    <glyph glyph-name="braceright" unicode="}" horiz-adv-x="518" 
d="M577 647q0 -19 -10.5 -44t-34.5 -58l-83 -96q-54 -61 -65 -97q-2 -6 -3 -13t-1 -13q0 -10 1 -15q4 -6 9 -13t13 -16q10 -6 11 -17q0 -25 -34 -32q-17 -5 -28.5 -9.5t-29.5 -14.5q-30 -16 -50 -54q-9 -19 -17.5 -44t-15.5 -58l-21 -99q-30 -75 -83 -97q-33 -13 -71 -13
h-12q-6 0 -22 2q-13 0 -13 14t12 26t27 12q17 -3 31 -3q25 0 49 9q20 11 28 44l27 103q17 71 32 103q32 70 91 99l25 11l-10 14q-4 12 -4 24q0 20 10 45q13 40 68 108l86 107q33 36 33 64q0 20 -14 26q-4 2 -30 5q-12 0 -12 14q0 13 11.5 25t27.5 12q18 0 32 -4.5t24 -11.5
q16 -13 16 -45z" />
    <glyph glyph-name="asciitilde" unicode="~" horiz-adv-x="371" 
d="M505 413q20 -21 31 -21q10 0 35 31q3 6 18 11q12 0 21 -12l4 -12q0 -8 -4 -13q-32 -52 -70 -52q-32 0 -67 35q-27 27 -38 28q-11 0 -41 -36q-8 -12 -20 -12q-22 0 -22 22q0 6 4 13q38 61 84 61q21 0 65 -43z" />
    <glyph glyph-name="nonbreakingspace" unicode="&#xa0;" horiz-adv-x="323" 
 />
    <glyph glyph-name="exclamdown" unicode="&#xa1;" horiz-adv-x="388" 
d="M124 133q0 27 28 27t28 -27q0 -67 -110 -195q-11 -14 -33.5 -37.5t-71.5 -74.5q-43 -44 -105 -108q-13 -35 -24 -52q-15 -24 -48 -24q-11 0 -18 6t-10 19q0 27 57 89q82 82 133.5 135.5t67.5 73.5q106 121 106 168zM322 281q0 -18 -14.5 -32.5t-34.5 -14.5t-34 14
q-14 12 -14 33q0 19 15.5 33.5t32.5 14.5q19 0 34 -14t15 -34z" />
    <glyph glyph-name="cent" unicode="&#xa2;" horiz-adv-x="414" 
d="M296 316q-58 -18 -132.5 -100t-74.5 -138q0 -12 20 -12q27 0 102 38q76 34 137 74l14 4q18 0 25 -19l2 -10q0 -8 -13 -20q-139 -84 -242 -113q-30 -48 -57 -97q-4 -10 -22 -14q-24 0 -24 24l3 13l40 72q-36 12 -36 56q0 82 101 189q43 46 94 80q50 28 89 28q13 0 21 -4
l54 53q3 3 18 8q15 0 21 -15l2 -10q0 -10 -8 -18l-49 -48q8 -13 8 -32q0 -11 -8.5 -24t-22.5 -16q-24 0 -27 19l2 9l3 10q0 6 -5 11.5t-15 5.5l-10 -2q-7 0 -10 -2z" />
    <glyph glyph-name="sterling" unicode="&#xa3;" horiz-adv-x="647" 
d="M225 216q-14 -3 -23 5.5t-9 20.5q0 18 20 25l54 10l33 4l30 1q186 270 274 270q21 0 34 -20l8 -19l2 -24q-6 -48 -37 -76q-3 -3 -18 -8q-27 0 -27 26q0 8 10 22l14 24l6 21q-18 -3 -78 -66l-59 -68l-61 -81l96 6q29 0 29 -26q0 -20 -26 -26l-67 -3l-69 -2
q-90 -138 -127 -215q119 11 190 11q66 0 135 -6q23 0 23 -25q0 -27 -29 -27l-113 4q-134 0 -231 -13q-6 -16 -24 -16q-14 0 -21 11h-6q-18 -36 -95 -43q-17 0 -29 9.5t-17 27.5q0 33 80 48l79 14q38 87 117 215l-31 -4q-13 0 -37 -7z" />
    <glyph glyph-name="dieresis" unicode="&#xa8;" horiz-adv-x="263" 
d="M345 388q-11 0 -21.5 8.5t-15.5 25.5q0 15 8.5 22.5t28.5 12.5q34 0 34 -35q0 -34 -34 -34zM496 388q-14 0 -25 8q-9 9 -12 26q0 14 9 23t28 12q34 0 34 -35q0 -34 -34 -34z" />
    <glyph glyph-name="guillemotleft" unicode="&#xab;" horiz-adv-x="401" 
d="M126 22q2 -9 -4.5 -16t-20.5 -11q-12 0 -20 18l-15 71q-9 39 -9 59q0 18 19 44l85 101q6 9 17 9q12 0 21 -12l3 -11q0 -6 -5 -14l-46 -55l-50 -63l9 -44zM253 22q2 -9 -4.5 -16t-20.5 -11q-12 0 -20 18l-15 71q-9 39 -9 59q0 18 19 44l85 101q6 9 17 9q12 0 21 -12l3 -11
q0 -6 -5 -14q-52 -60 -96 -118l9 -44z" />
    <glyph glyph-name="acute" unicode="&#xb4;" horiz-adv-x="259" 
d="M498 449l-156 -82l-11 -3q-23 0 -23 24q0 8 13 20l155 82l11 3q13 0 22 -18q6 -15 -11 -26z" />
    <glyph glyph-name="guillemotright" unicode="&#xbb;" horiz-adv-x="401" 
d="M144 272q-3 26 23 26q14 0 23 -18l16 -94l6 -48q-3 -17 -101 -132q-6 -9 -19 -10q-24 0 -24 23q0 6 5 14l96 118l-9 48zM272 272q-3 26 22 26q14 0 23 -18l16 -94l6 -48q-3 -10 -37 -56l-64 -76q-6 -9 -19 -10q-24 0 -24 23q0 8 5 14l96 118l-9 48z" />
    <glyph glyph-name="questiondown" unicode="&#xbf;" horiz-adv-x="516" 
d="M264 -258q-57 -29 -156 -51l-95 -16q-48 -6 -90 -6q-73 0 -123 22q-63 27 -63 79q0 51 86 100l187 84l132 57q66 30 97 54q0 7 -5 12l-7 20q0 18 19 25l10 2q13 0 21 -11q17 -22 17 -50q0 -30 -22 -46q-55 -37 -241 -113l-87 -36q-20 -9 -39 -18.5t-40 -22.5
q-72 -41 -72 -58q0 -8 33 -28q21 -8 43.5 -12t53.5 -4l71 3q14 1 33.5 4t36.5 6.5t28.5 5.5t43.5 11q38 9 77 25q18 32 50 41l12 1q24 0 31 -29q3 -29 -42 -51zM433 274q0 -18 -16 -34q-16 -14 -33 -14q-19 0 -34 14q-14 16 -14 34q0 19 14 33t34 14q19 0 34 -14
q15 -12 15 -33z" />
    <glyph glyph-name="Agrave" unicode="&#xc0;" horiz-adv-x="1000" 
d="M1064 582q0 -39 -82 -169l-150 -240q-77 -130 -86 -190q30 16 81 55l18 7q15 0 26 -17l3 -11q0 -9 -11 -20q-83 -71 -132 -71q-42 0 -42 58q0 56 103 229l-75 3l-71 6l-62 4l-59 1h-13q-13 0 -27.5 -0.5t-35.5 -7.5q-13 -4 -26 -10.5t-25 -15.5l-132 -96l-124 -94
l-117 -91q-6 -8 -27 -18q-16 0 -25 8q-11 6 -11 24q0 29 39 68l19 5l21 -3l279 209l-94 -3l-62 -2l-14 -7q-33 -9 -75 -9q-30 0 -30 24q0 12 8.5 23.5t27.5 17.5l105 8l110 2l98 3q537 378 614 378q23 0 39.5 -15.5t16.5 -42.5zM989 842l82 -107l5 -15q0 -15 -16 -22l-9 -2
q-9 0 -19 10l-82 109l-4 12q0 15 16 22l10 2q6 0 17 -9zM999 582q-22 0 -169 -92l-48 -30l-57 -38l-111 -76l-119 -84l330 7l122 191q51 82 59 115q0 6 -7 7z" />
    <glyph glyph-name="Aacute" unicode="&#xc1;" horiz-adv-x="1000" 
d="M1064 582q0 -39 -82 -169l-150 -240q-77 -130 -86 -190q30 16 81 55l18 7q15 0 26 -17l3 -11q0 -9 -11 -20q-83 -71 -132 -71q-42 0 -42 58q0 56 103 229l-75 3l-71 6l-62 4l-59 1h-13q-13 0 -27.5 -0.5t-35.5 -7.5q-13 -4 -26 -10.5t-25 -15.5l-132 -96l-124 -94
l-117 -91q-6 -8 -27 -18q-16 0 -25 8q-11 6 -11 24q0 29 39 68l19 5l21 -3l279 209l-94 -3l-62 -2l-14 -7q-33 -9 -75 -9q-30 0 -30 24q0 12 8.5 23.5t27.5 17.5l105 8l110 2l98 3q537 378 614 378q23 0 39.5 -15.5t16.5 -42.5zM1183 792l-156 -82l-11 -3q-24 0 -24 24
q0 12 14 20l156 82l11 3q13 0 22 -18q3 -13 -12 -26zM999 582q-22 0 -169 -92l-48 -30l-57 -38l-111 -76l-119 -84l330 7l122 191q51 82 59 115q0 6 -7 7z" />
    <glyph glyph-name="Acircumflex" unicode="&#xc2;" horiz-adv-x="1000" 
d="M1064 582q0 -39 -82 -169l-150 -240q-77 -130 -86 -190q30 16 81 55l18 7q15 0 26 -17l3 -11q0 -9 -11 -20q-83 -71 -132 -71q-42 0 -42 58q0 56 103 229l-75 3l-71 6l-62 4l-59 1h-13q-13 0 -27.5 -0.5t-35.5 -7.5q-13 -4 -26 -10.5t-25 -15.5l-132 -96l-124 -94
l-117 -91q-6 -8 -27 -18q-16 0 -25 8q-11 6 -11 24q0 29 39 68l19 5l21 -3l279 209l-94 -3l-62 -2l-14 -7q-33 -9 -75 -9q-30 0 -30 24q0 12 8.5 23.5t27.5 17.5l105 8l110 2l98 3q537 378 614 378q23 0 39.5 -15.5t16.5 -42.5zM1129 782q6 -35 19 -48q6 -6 7 -17
q0 -15 -16 -21l-11 -2q-8 0 -15 7q-9 12 -21 51l-46 -24l-64 -33l-9 -2q-20 0 -20 24q0 15 14 23q22 8 118 60l16 5q24 0 28 -23zM999 582q-22 0 -169 -92l-48 -30l-57 -38l-111 -76l-119 -84l330 7l122 191q51 82 59 115q0 6 -7 7z" />
    <glyph glyph-name="Atilde" unicode="&#xc3;" horiz-adv-x="1000" 
d="M1064 582q0 -39 -82 -169l-150 -240q-77 -130 -86 -190q30 16 81 55l18 7q15 0 26 -17l3 -11q0 -9 -11 -20q-83 -71 -132 -71q-42 0 -42 58q0 56 103 229l-75 3l-71 6l-62 4l-59 1h-13q-13 0 -27.5 -0.5t-35.5 -7.5q-13 -4 -26 -10.5t-25 -15.5l-132 -96l-124 -94
l-117 -91q-6 -8 -27 -18q-16 0 -25 8q-11 6 -11 24q0 29 39 68l19 5l21 -3l279 209l-94 -3l-62 -2l-14 -7q-33 -9 -75 -9q-30 0 -30 24q0 12 8.5 23.5t27.5 17.5l105 8l110 2l98 3q537 378 614 378q23 0 39.5 -15.5t16.5 -42.5zM1072 751q15 -17 30 -20l7 5q10 7 18 16
q18 21 29 21q12 0 21 -13l4 -12q0 -8 -4 -13q-32 -52 -70 -52q-26 0 -67 36q-27 27 -38 28q-11 0 -41 -37q-8 -12 -20 -12q-23 0 -23 23q0 6 4 13q36 60 84 60q26 0 66 -43zM999 582q-22 0 -169 -92l-48 -30l-57 -38l-111 -76l-119 -84l330 7l122 191q51 82 59 115q0 6 -7 7
z" />
    <glyph glyph-name="Adieresis" unicode="&#xc4;" horiz-adv-x="1000" 
d="M1064 582q0 -39 -82 -169l-150 -240q-77 -130 -86 -190q30 16 81 55l18 7q15 0 26 -17l3 -11q0 -9 -11 -20q-83 -71 -132 -71q-42 0 -42 58q0 56 103 229l-75 3l-71 6l-62 4l-59 1h-13q-13 0 -27.5 -0.5t-35.5 -7.5q-13 -4 -26 -10.5t-25 -15.5l-132 -96l-124 -94
l-117 -91q-6 -8 -27 -18q-16 0 -25 8q-11 6 -11 24q0 29 39 68l19 5l21 -3l279 209l-94 -3l-62 -2l-14 -7q-33 -9 -75 -9q-30 0 -30 24q0 12 8.5 23.5t27.5 17.5l105 8l110 2l98 3q537 378 614 378q23 0 39.5 -15.5t16.5 -42.5zM983 700q-13 0 -23 9t-14 26q0 14 9 22.5
t28 11.5q34 0 34 -34q0 -11 -8.5 -21.5t-25.5 -13.5zM1134 700q-13 0 -23 9t-14 26q0 14 9 22.5t28 11.5q34 0 34 -34q0 -11 -8.5 -21.5t-25.5 -13.5zM999 582q-22 0 -169 -92l-48 -30l-57 -38l-111 -76l-119 -84l330 7l122 191q51 82 59 115q0 6 -7 7z" />
    <glyph glyph-name="Aring" unicode="&#xc5;" horiz-adv-x="1000" 
d="M1064 582q0 -39 -82 -169l-150 -240q-77 -130 -86 -190q30 16 81 55l18 7q15 0 26 -17l3 -11q0 -9 -11 -20q-83 -71 -132 -71q-42 0 -42 58q0 56 103 229l-75 3l-71 6l-62 4l-59 1h-13q-13 0 -27.5 -0.5t-35.5 -7.5q-13 -4 -26 -10.5t-25 -15.5l-132 -96l-124 -94
l-117 -91q-6 -8 -27 -18q-16 0 -25 8q-11 6 -11 24q0 29 39 68l19 5l21 -3l279 209l-94 -3l-62 -2l-14 -7q-33 -9 -75 -9q-30 0 -30 24q0 12 8.5 23.5t27.5 17.5l105 8l110 2l98 3q537 378 614 378q23 0 39.5 -15.5t16.5 -42.5zM1001 791q0 38 28 66t66 28t66 -28t28 -66
t-28 -66t-66 -28t-66 28t-28 66zM999 582q-22 0 -169 -92l-48 -30l-57 -38l-111 -76l-119 -84l330 7l122 191q51 82 59 115q0 6 -7 7zM1037 791q0 -24 17 -41t41 -17t41 17t17 41t-17 41t-41 17t-41 -17t-17 -41z" />
    <glyph glyph-name="AE" unicode="&#xc6;" horiz-adv-x="1366" 
d="M1495 655q66 0 102 -14.5t45 -49.5l3 -22q0 -48 -44 -88l-19 -8q-9 0 -17.5 8t-11.5 22q0 11 8 19q25 25 25 53q-5 24 -91 24q-147 0 -341.5 -84t-194.5 -158q0 -39 65 -63q57 -21 144 -21l36 1q15 0 24 -9t9 -22q0 -24 -27 -27q-53 0 -122 -15q-38 -7 -134 -39
q-190 -59 -190 -135q0 -46 94 -46q57 0 151.5 19t215.5 55l10 1q19 0 26 -25q3 -20 -21 -32q-51 -16 -105.5 -30t-113.5 -26q-93 -18 -163 -18q-100 0 -132 47q-18 -50 -18 -69q0 -32 -29 -32q-24 0 -27 29l3 34q5 34 38 102.5t99 176.5l-75 3l-71 6l-62 4l-59 1h-13
q-13 0 -27.5 -0.5t-35.5 -7.5q-13 -4 -26 -10.5t-25 -15.5l-202 -150l-73 -54l-98 -77q-6 -8 -27 -18q-14 -3 -24 6.5t-12 25.5q6 33 39 68l19 5l21 -3l279 209l-94 -3l-62 -2l-14 -7q-36 -9 -75 -9q-30 0 -30 24q0 12 8.5 23.5t27.5 17.5l105 8l110 2l98 3q537 378 612 378
q29 0 45 -16q6 -6 10 -20l3 -24q0 -20 -20 -57q17 10 43 22t55.5 24.5t60.5 23.5q20 7 66 21q66 20 122 31l52 7zM1014 237q-69 21 -98 68l-80 -128q63 32 178 60zM1008 584q-24 0 -176 -94q-142 -88 -337 -228l330 7l133 209q50 82 50 106z" />
    <glyph glyph-name="Ccedilla" unicode="&#xc7;" horiz-adv-x="718" 
d="M204 -83q-67 0 -105 44q-32 35 -32 91q0 53 33 122q17 35 42 71.5t59 76.5q115 146 269 252q79 56 138 85t102 29q38 0 67 -30q21 -26 21 -70l-3 -35l-5 -28q14 -9 14 -24q0 -9 -6 -18q-21 -33 -61 -76q-5 -5 -22 -10q-11 0 -20 8q-3 4 -8 20q0 11 8 20q15 18 31 65.5
t16 78.5q0 23 -3.5 30.5t-27.5 11.5q-37 0 -89.5 -26.5t-123.5 -79.5q-139 -104 -257 -241q-56 -68 -87 -128.5t-31 -102.5q0 -38 16 -54q10 -10 31.5 -18.5t51.5 -8.5l15 -1q67 0 195 67q116 62 163 106q9 9 21 9q15 0 26 -17l4 -14q0 -5 -9 -16q-54 -51 -162 -108
q-134 -72 -229 -81q3 -11 -7 -22l-17 -25q42 -20 42 -49q0 -31 -37 -56q-30 -18 -67 -18q-18 0 -21 2q-18 5 -18 20q0 8 9 19l10 3l12 -3l7 -1q15 0 39 11.5t24 19.5l-13 10l-18 9q-9 8 -14 27q0 17 27 53z" />
    <glyph glyph-name="Egrave" unicode="&#xc8;" horiz-adv-x="733" 
d="M548 52l10 1q20 0 28 -24q3 -24 -22 -33q-249 -75 -383 -75q-149 0 -149 101q0 132 306 212q-112 32 -112 119q0 54 54 105q25 24 67.5 50t97.5 51q93 39 192 66t181 27q65 0 102 -14.5t46 -50.5l3 -22q0 -48 -44 -88q-3 -3 -19 -8q-12 0 -21 9t-9 21q0 7 9 19
q25 22 25 44l-1 10q-3 24 -91 24q-156 0 -349 -89q-187 -83 -187 -154q0 -45 79 -67q29 -8 73 -12l93 -4q34 0 34 -29q0 -22 -28 -29q-137 -14 -261 -55q-185 -57 -185 -133q0 -47 94 -47q86 0 367 75zM787 852l82 -106l5 -15q0 -15 -16 -22l-9 -2q-9 0 -19 10l-82 108
l-4 12q0 11 16 23l9 2q11 0 18 -10z" />
    <glyph glyph-name="Eacute" unicode="&#xc9;" horiz-adv-x="733" 
d="M548 52l10 1q20 0 28 -24q3 -24 -22 -33q-249 -75 -383 -75q-149 0 -149 101q0 132 306 212q-112 32 -112 119q0 54 54 105q25 24 67.5 50t97.5 51q93 39 192 66t181 27q65 0 102 -14.5t46 -50.5l3 -22q0 -48 -44 -88q-3 -3 -19 -8q-12 0 -21 9t-9 21q0 7 9 19
q25 22 25 44l-1 10q-3 24 -91 24q-156 0 -349 -89q-187 -83 -187 -154q0 -45 79 -67q29 -8 73 -12l93 -4q34 0 34 -29q0 -22 -28 -29q-137 -14 -261 -55q-185 -57 -185 -133q0 -47 94 -47q86 0 367 75zM877 792l-156 -82l-11 -3q-24 0 -24 24q0 12 14 20l156 82l11 3
q13 0 22 -18q3 -13 -12 -26z" />
    <glyph glyph-name="Ecircumflex" unicode="&#xca;" horiz-adv-x="733" 
d="M548 52l10 1q20 0 28 -24q3 -24 -22 -33q-249 -75 -383 -75q-149 0 -149 101q0 132 306 212q-112 32 -112 119q0 54 54 105q25 24 67.5 50t97.5 51q93 39 192 66t181 27q65 0 102 -14.5t46 -50.5l3 -22q0 -48 -44 -88q-3 -3 -19 -8q-12 0 -21 9t-9 21q0 7 9 19
q25 22 25 44l-1 10q-3 24 -91 24q-156 0 -349 -89q-187 -83 -187 -154q0 -45 79 -67q29 -8 73 -12l93 -4q34 0 34 -29q0 -22 -28 -29q-137 -14 -261 -55q-185 -57 -185 -133q0 -47 94 -47q86 0 367 75zM892 793q5 -34 19 -48q6 -6 7 -17q0 -15 -16 -21l-7 -2h-4q-6 0 -15 6
q-9 11 -21 52l-46 -24l-64 -33l-9 -2q-20 0 -20 24q0 15 14 23l43 20l75 39l17 5q24 0 27 -22z" />
    <glyph glyph-name="Edieresis" unicode="&#xcb;" horiz-adv-x="733" 
d="M548 52l10 1q20 0 28 -24q3 -24 -22 -33q-249 -75 -383 -75q-149 0 -149 101q0 132 306 212q-112 32 -112 119q0 54 54 105q25 24 67.5 50t97.5 51q93 39 192 66t181 27q65 0 102 -14.5t46 -50.5l3 -22q0 -48 -44 -88q-3 -3 -19 -8q-12 0 -21 9t-9 21q0 7 9 19
q25 22 25 44l-1 10q-3 24 -91 24q-156 0 -349 -89q-187 -83 -187 -154q0 -45 79 -67q29 -8 73 -12l93 -4q34 0 34 -29q0 -22 -28 -29q-137 -14 -261 -55q-185 -57 -185 -133q0 -47 94 -47q86 0 367 75zM752 713q-11 0 -23 9q-9 9 -13 26q0 15 9 22.5t27 11.5q35 0 35 -34
q0 -35 -35 -35zM903 713q-11 0 -22 8.5t-15 26.5q0 12 9.5 21.5t27.5 12.5q11 0 21 -8.5t14 -25.5q0 -15 -9 -24q-8 -6 -26 -11z" />
    <glyph glyph-name="Igrave" unicode="&#xcc;" horiz-adv-x="474" 
d="M510 570l18 7q20 0 29 -21l86 7q10 0 19.5 -8t12.5 -23q0 -20 -25 -26l-133 -10q-238 -233 -355 -471l127 3q28 0 28 -26q0 -30 -28 -30l-77 -4l-95 -4q-24 -14 -100 -29q-17 -3 -38 6t-21 28q0 24 24 35l66 12l52 6q95 214 333 470l-88 -3q-30 0 -30 27q0 23 30 29l34 1
l37 1q15 0 34.5 1t40.5 4zM522 770l81 -106l5 -15q0 -11 -15 -22l-9 -2q-9 0 -19 10l-82 109l-4 12q0 15 16 22l9 2q11 0 18 -10z" />
    <glyph glyph-name="Iacute" unicode="&#xcd;" horiz-adv-x="474" 
d="M510 570l18 7q20 0 29 -21l86 7q10 0 19.5 -8t12.5 -23q0 -20 -25 -26l-133 -10q-238 -233 -355 -471l127 3q28 0 28 -26q0 -30 -28 -30l-77 -4l-95 -4q-24 -14 -100 -29q-17 -3 -38 6t-21 28q0 24 24 35l66 12l52 6q95 214 333 470l-88 -3q-30 0 -30 27q0 23 30 29l34 1
l37 1q15 0 34.5 1t40.5 4zM705 727l-157 -82q-5 -3 -11 -3q-22 0 -22 24q0 8 13 20l155 82l11 3q13 0 22 -18q6 -15 -11 -26z" />
    <glyph glyph-name="Icircumflex" unicode="&#xce;" horiz-adv-x="474" 
d="M510 570l18 7q20 0 29 -21l86 7q10 0 19.5 -8t12.5 -23q0 -20 -25 -26l-133 -10q-238 -233 -355 -471l127 3q28 0 28 -26q0 -30 -28 -30l-77 -4l-95 -4q-24 -14 -100 -29q-17 -3 -38 6t-21 28q0 24 24 35l66 12l52 6q95 214 333 470l-88 -3q-30 0 -30 27q0 23 30 29l34 1
l37 1q15 0 34.5 1t40.5 4zM635 713q6 -33 18 -48l8 -17q0 -15 -16 -21q-15 -3 -27 6q-10 13 -21 50l-46 -24l-64 -33l-9 -2q-20 0 -20 24q0 15 14 23q20 7 119 60l16 5q24 0 28 -23z" />
    <glyph glyph-name="Idieresis" unicode="&#xcf;" horiz-adv-x="474" 
d="M510 570l18 7q20 0 29 -21l86 7q10 0 19.5 -8t12.5 -23q0 -20 -25 -26l-133 -10q-238 -233 -355 -471l127 3q28 0 28 -26q0 -30 -28 -30l-77 -4l-95 -4q-24 -14 -100 -29q-17 -3 -38 6t-21 28q0 24 24 35l66 12l52 6q95 214 333 470l-88 -3q-30 0 -30 27q0 23 30 29l34 1
l37 1q15 0 34.5 1t40.5 4zM496 631q-13 0 -23 9t-14 26q0 14 9 22.5t28 11.5q34 0 34 -34q0 -11 -8.5 -21.5t-25.5 -13.5zM647 631q-13 0 -23 9t-14 26q0 14 9 22.5t28 11.5q34 0 34 -34q0 -11 -8.5 -21.5t-25.5 -13.5z" />
    <glyph glyph-name="Ntilde" unicode="&#xd1;" horiz-adv-x="944" 
d="M15 -55q38 130 208 357q89 120 155.5 183t107.5 63q19 0 33.5 -5.5t24.5 -20.5q25 -37 51.5 -262t31.5 -237q49 95 186.5 278.5t217.5 262.5l18 7q13 0 26 -16l4 -13q0 -7 -9 -19q-102 -105 -225 -271q-65 -88 -105.5 -150t-70.5 -118q-15 -30 -45 -30q-26 0 -41 30
q-5 17 -16 83l-25 176q-27 220 -46 249q-43 12 -206 -196q-144 -187 -209 -326q30 0 30 -29q0 -21 -22 -27l-25 -11l-12 -2q-39 0 -39 32q0 10 2 12zM788 650q20 -21 30 -21l7 5q10 7 18 16q18 21 28 22q12 0 21 -13l4 -12q0 -8 -4 -13l-15 -23l-17 -16q-8 -5 -18.5 -9
t-19.5 -4q-32 0 -67 35q-27 28 -37 28q-11 0 -41 -36q-8 -12 -20 -12q-23 0 -23 22q0 6 4 14q36 60 84 60q26 0 66 -43z" />
    <glyph glyph-name="Ograve" unicode="&#xd2;" horiz-adv-x="815" 
d="M672 636q46 0 79.5 -12.5t61.5 -41.5q22 -25 32.5 -53t10.5 -63q0 -59 -31 -122.5t-96 -137.5q-110 -126 -266 -220q-71 -43 -141 -69.5t-118 -26.5q-72 0 -111 51q-30 44 -30 106q0 52 18 103q9 26 24 53t38 58q76 109 204 187q-9 12 -6 23q12 57 123 113
q47 20 102.5 36t105.5 16zM694 842l82 -107l5 -15q0 -15 -16 -22l-9 -2q-9 0 -19 10l-82 109l-4 12q0 15 16 22l10 2q6 0 17 -9zM119 47q0 -24 4.5 -41.5t13.5 -30.5t27 -21t40 -8q43 0 100 21.5t129 67.5q147 90 255 210q57 64 84.5 122t27.5 99q0 54 -33.5 84t-94.5 30
q-32 0 -40 -2q-11 0 -40 -7t-79 -29q-85 -37 -111 -68q27 0 27 -29q0 -15 -15 -24q-122 -60 -215 -178q-40 -52 -60 -104t-20 -92z" />
    <glyph glyph-name="Oacute" unicode="&#xd3;" horiz-adv-x="815" 
d="M672 636q46 0 79.5 -12.5t61.5 -41.5q22 -25 32.5 -53t10.5 -63q0 -59 -31 -122.5t-96 -137.5q-110 -126 -266 -220q-71 -43 -141 -69.5t-118 -26.5q-72 0 -111 51q-30 44 -30 106q0 52 18 103q9 26 24 53t38 58q76 109 204 187q-9 12 -6 23q12 57 123 113
q47 20 102.5 36t105.5 16zM856 792l-157 -82l-11 -3q-23 0 -23 24q0 12 14 20l155 82l11 3q12 0 23 -18q3 -13 -12 -26zM119 47q0 -24 4.5 -41.5t13.5 -30.5t27 -21t40 -8q43 0 100 21.5t129 67.5q147 90 255 210q57 64 84.5 122t27.5 99q0 54 -33.5 84t-94.5 30
q-32 0 -40 -2q-11 0 -40 -7t-79 -29q-85 -37 -111 -68q27 0 27 -29q0 -15 -15 -24q-122 -60 -215 -178q-40 -52 -60 -104t-20 -92z" />
    <glyph glyph-name="Ocircumflex" unicode="&#xd4;" horiz-adv-x="815" 
d="M672 636q46 0 79.5 -12.5t61.5 -41.5q22 -25 32.5 -53t10.5 -63q0 -59 -31 -122.5t-96 -137.5q-110 -126 -266 -220q-71 -43 -141 -69.5t-118 -26.5q-72 0 -111 51q-30 44 -30 106q0 52 18 103q9 26 24 53t38 58q76 109 204 187q-9 12 -6 23q12 57 123 113
q47 20 102.5 36t105.5 16zM839 783q3 -17 18 -49q6 -6 7 -17q0 -15 -16 -21l-10 -2q-8 0 -16 9q-6 10 -21 49l-46 -24l-64 -33l-9 -2q-20 0 -20 24q0 15 14 23q22 8 118 60l16 5q20 0 29 -22zM119 47q0 -24 4.5 -41.5t13.5 -30.5t27 -21t40 -8q43 0 100 21.5t129 67.5
q147 90 255 210q57 64 84.5 122t27.5 99q0 54 -33.5 84t-94.5 30q-32 0 -40 -2q-11 0 -40 -7t-79 -29q-85 -37 -111 -68q27 0 27 -29q0 -15 -15 -24q-122 -60 -215 -178q-40 -52 -60 -104t-20 -92z" />
    <glyph glyph-name="Otilde" unicode="&#xd5;" horiz-adv-x="815" 
d="M672 636q46 0 79.5 -12.5t61.5 -41.5q22 -25 32.5 -53t10.5 -63q0 -59 -31 -122.5t-96 -137.5q-110 -126 -266 -220q-71 -43 -141 -69.5t-118 -26.5q-72 0 -111 51q-30 44 -30 106q0 52 18 103q9 26 24 53t38 58q76 109 204 187q-9 12 -6 23q12 57 123 113
q47 20 102.5 36t105.5 16zM788 749q20 -21 30 -21q12 0 35 32q4 6 18 11q12 0 21 -12l4 -12q0 -6 -4 -14l-15 -23l-17 -16q-8 -5 -18.5 -9t-19.5 -4q-26 0 -67 36q-25 27 -37 28q-11 0 -41 -37q-8 -12 -20 -12q-23 0 -23 23q0 6 4 13q36 60 84 60q26 0 66 -43zM119 47
q0 -24 4.5 -41.5t13.5 -30.5t27 -21t40 -8q43 0 100 21.5t129 67.5q147 90 255 210q57 64 84.5 122t27.5 99q0 54 -33.5 84t-94.5 30q-32 0 -40 -2q-11 0 -40 -7t-79 -29q-85 -37 -111 -68q27 0 27 -29q0 -15 -15 -24q-122 -60 -215 -178q-40 -52 -60 -104t-20 -92z" />
    <glyph glyph-name="Odieresis" unicode="&#xd6;" horiz-adv-x="815" 
d="M672 636q46 0 79.5 -12.5t61.5 -41.5q22 -25 32.5 -53t10.5 -63q0 -59 -31 -122.5t-96 -137.5q-110 -126 -266 -220q-71 -43 -141 -69.5t-118 -26.5q-72 0 -111 51q-30 44 -30 106q0 52 18 103q9 26 24 53t38 58q76 109 204 187q-9 12 -6 23q12 57 123 113
q47 20 102.5 36t105.5 16zM694 700q-11 0 -22 8.5t-15 26.5q0 12 9.5 21.5t27.5 12.5q34 0 34 -34q0 -11 -8.5 -21.5t-25.5 -13.5zM845 700q-11 0 -22 8.5t-15 26.5q0 12 9.5 21.5t27.5 12.5q34 0 34 -34q0 -11 -8.5 -21.5t-25.5 -13.5zM119 47q0 -24 4.5 -41.5t13.5 -30.5
t27 -21t40 -8q43 0 100 21.5t129 67.5q147 90 255 210q57 64 84.5 122t27.5 99q0 54 -33.5 84t-94.5 30q-32 0 -40 -2q-11 0 -40 -7t-79 -29q-85 -37 -111 -68q27 0 27 -29q0 -15 -15 -24q-122 -60 -215 -178q-40 -52 -60 -104t-20 -92z" />
    <glyph glyph-name="Ugrave" unicode="&#xd9;" horiz-adv-x="884" 
d="M483 579q-6 -62 -103 -193l-175 -223q-92 -119 -92 -160l1 -6l3 -3q41 0 186 100l63 43l91 65l119 89q175 127 215 150l28 13l25 5q18 0 34.5 -12.5t16.5 -30.5q0 -9 -5 -17l-84 -130q-63 -99 -103 -176q13 -16 13 -38q-3 -24 -17 -43.5t-36 -19.5q-35 0 -35 39
q0 21 12 54q39 102 181 307q-19 -10 -72.5 -47.5t-142.5 -102.5l-163 -119l-117 -81q-158 -105 -209 -105q-18 0 -27 5q-7 2 -20 15q-13 20 -13 45q0 51 100 191l177 228q93 123 93 160q0 12 -29 12q-28 0 -47 -9t-41 -28q-6 -6 -16 -6q-11 0 -20 8.5t-9 19.5t11 21
q56 50 126 50q39 0 62 -19q19 -16 19 -51zM668 723l82 -107l5 -14q0 -11 -16 -23l-9 -2q-9 0 -19 10l-82 109l-4 12q0 15 16 22l10 3q7 0 17 -10z" />
    <glyph glyph-name="Uacute" unicode="&#xda;" horiz-adv-x="884" 
d="M483 579q-6 -62 -103 -193l-175 -223q-92 -119 -92 -160l1 -6l3 -3q41 0 186 100l63 43l91 65l119 89q175 127 215 150l28 13l25 5q18 0 34.5 -12.5t16.5 -30.5q0 -9 -5 -17l-84 -130q-63 -99 -103 -176q13 -16 13 -38q-3 -24 -17 -43.5t-36 -19.5q-35 0 -35 39
q0 21 12 54q39 102 181 307q-19 -10 -72.5 -47.5t-142.5 -102.5l-163 -119l-117 -81q-158 -105 -209 -105q-18 0 -27 5q-7 2 -20 15q-13 20 -13 45q0 51 100 191l177 228q93 123 93 160q0 12 -29 12q-28 0 -47 -9t-41 -28q-6 -6 -16 -6q-11 0 -20 8.5t-9 19.5t11 21
q56 50 126 50q39 0 62 -19q19 -16 19 -51zM845 663l-156 -82l-11 -3q-23 0 -23 24q0 8 13 20l77 41l78 41l12 3q15 0 21 -18q6 -15 -11 -26z" />
    <glyph glyph-name="Ucircumflex" unicode="&#xdb;" horiz-adv-x="884" 
d="M483 579q-6 -62 -103 -193l-175 -223q-92 -119 -92 -160l1 -6l3 -3q41 0 186 100l63 43l91 65l119 89q175 127 215 150l28 13l25 5q18 0 34.5 -12.5t16.5 -30.5q0 -9 -5 -17l-84 -130q-63 -99 -103 -176q13 -16 13 -38q-3 -24 -17 -43.5t-36 -19.5q-35 0 -35 39
q0 21 12 54q39 102 181 307q-19 -10 -72.5 -47.5t-142.5 -102.5l-163 -119l-117 -81q-158 -105 -209 -105q-18 0 -27 5q-7 2 -20 15q-13 20 -13 45q0 51 100 191l177 228q93 123 93 160q0 12 -29 12q-28 0 -47 -9t-41 -28q-6 -6 -16 -6q-11 0 -20 8.5t-9 19.5t11 21
q56 50 126 50q39 0 62 -19q19 -16 19 -51zM784 675q11 -39 18 -48l9 -18q0 -15 -16 -21l-10 -2q-6 0 -17 9q-11 14 -21 49l-46 -24l-64 -33l-9 -2q-20 0 -20 25q0 13 16 23l41 20l75 39l17 5q24 0 27 -22z" />
    <glyph glyph-name="Udieresis" unicode="&#xdc;" horiz-adv-x="884" 
d="M483 579q-6 -62 -103 -193l-175 -223q-92 -119 -92 -160l1 -6l3 -3q41 0 186 100l63 43l91 65l119 89q175 127 215 150l28 13l25 5q18 0 34.5 -12.5t16.5 -30.5q0 -9 -5 -17l-84 -130q-63 -99 -103 -176q13 -16 13 -38q-3 -24 -17 -43.5t-36 -19.5q-35 0 -35 39
q0 21 12 54q39 102 181 307q-19 -10 -72.5 -47.5t-142.5 -102.5l-163 -119l-117 -81q-158 -105 -209 -105q-18 0 -27 5q-7 2 -20 15q-13 20 -13 45q0 51 100 191l177 228q93 123 93 160q0 12 -29 12q-28 0 -47 -9t-41 -28q-6 -6 -16 -6q-11 0 -20 8.5t-9 19.5t11 21
q56 50 126 50q39 0 62 -19q19 -16 19 -51zM638 569q-11 0 -21.5 8.5t-15.5 25.5q0 15 8.5 22.5t28.5 12.5q34 0 34 -35q0 -34 -34 -34zM789 569q-14 0 -25 8q-9 9 -12 26q0 14 9 23t28 12q34 0 34 -35q0 -34 -34 -34z" />
    <glyph glyph-name="germandbls" unicode="&#xdf;" horiz-adv-x="621" 
d="M195 -109q-27 0 -27 31q0 17 22 26q57 9 170.5 72.5t122.5 105.5l1 14q0 57 -71 57l-25 -3l-22 -3q-24 0 -31 28l-1 10q0 20 19 30l156 68q103 48 103 90q0 36 -42 36q-87 0 -206.5 -93.5t-264.5 -275.5q-158 -206 -229 -393l12 -24l8 -25q3 -15 -6 -31q-11 -16 -33 -16
q-46 0 -46 57q0 22 9 52q66 189 237 408q67 85 141 164q69 72 136 127q133 106 242 106q41 0 69.5 -27.5t28.5 -66.5q0 -86 -206 -168q37 -12 57 -41q23 -29 23 -64q0 -53 -75 -121q-62 -50 -150 -90t-122 -40z" />
    <glyph glyph-name="agrave" unicode="&#xe0;" 
d="M52 12q44 0 169 82l171 117q14 9 33 9q38 0 49 -36l5 -66q0 -25 1 -35.5t7 -25.5l1 -10q0 -27 -23 -27q-29 0 -35.5 26.5t-6.5 59.5l-3 57l-160 -111l-66 -40l-58 -31q-55 -25 -83 -25q-30 0 -47.5 17.5t-17.5 45.5q0 38 62.5 116t145.5 139l43 28l44 22q40 17 75 17
q56 0 56 -48q0 -35 -33 -35q-20 0 -37 17l-14 6q-69 -15 -177.5 -117.5t-108.5 -148.5zM347 555l82 -107l5 -15q0 -15 -16 -22l-9 -2q-9 0 -19 10l-82 109l-4 12q0 15 16 22l10 3q7 0 17 -10z" />
    <glyph glyph-name="aacute" unicode="&#xe1;" 
d="M52 12q44 0 169 82l171 117q14 9 33 9q38 0 49 -36l5 -66q0 -25 1 -35.5t7 -25.5l1 -10q0 -27 -23 -27q-29 0 -35.5 26.5t-6.5 59.5l-3 57l-160 -111l-66 -40l-58 -31q-55 -25 -83 -25q-30 0 -47.5 17.5t-17.5 45.5q0 38 62.5 116t145.5 139l43 28l44 22q40 17 75 17
q56 0 56 -48q0 -35 -33 -35q-20 0 -37 17l-14 6q-69 -15 -177.5 -117.5t-108.5 -148.5zM498 503l-156 -82l-11 -3q-23 0 -23 24q0 8 13 20l155 82l11 3q13 0 22 -18q6 -15 -11 -26z" />
    <glyph glyph-name="acircumflex" unicode="&#xe2;" 
d="M52 12q44 0 169 82l171 117q14 9 33 9q38 0 49 -36l5 -66q0 -25 1 -35.5t7 -25.5l1 -10q0 -27 -23 -27q-29 0 -35.5 26.5t-6.5 59.5l-3 57l-160 -111l-66 -40l-58 -31q-55 -25 -83 -25q-30 0 -47.5 17.5t-17.5 45.5q0 38 62.5 116t145.5 139l43 28l44 22q40 17 75 17
q56 0 56 -48q0 -35 -33 -35q-20 0 -37 17l-14 6q-69 -15 -177.5 -117.5t-108.5 -148.5zM453 496q6 -32 18 -49l8 -17q0 -15 -16 -21l-10 -2q-6 0 -17 9q-11 14 -21 50q-30 -18 -110 -58l-9 -2q-20 0 -20 25q0 13 16 23l41 20l75 39l17 5q24 0 28 -22z" />
    <glyph glyph-name="atilde" unicode="&#xe3;" 
d="M52 12q44 0 169 82l171 117q14 9 33 9q38 0 49 -36l5 -66q0 -25 1 -35.5t7 -25.5l1 -10q0 -27 -23 -27q-29 0 -35.5 26.5t-6.5 59.5l-3 57l-160 -111l-66 -40l-58 -31q-55 -25 -83 -25q-30 0 -47.5 17.5t-17.5 45.5q0 38 62.5 116t145.5 139l43 28l44 22q40 17 75 17
q56 0 56 -48q0 -35 -33 -35q-20 0 -37 17l-14 6q-69 -15 -177.5 -117.5t-108.5 -148.5zM408 467q20 -21 31 -21q10 0 35 31q3 6 18 11q12 0 21 -13l4 -12q0 -8 -4 -13q-30 -51 -70 -51q-31 0 -67 35q-27 27 -38 28q-11 0 -41 -36q-8 -12 -20 -12q-22 0 -22 21q0 6 4 14
q37 61 84 61q21 0 65 -43z" />
    <glyph glyph-name="adieresis" unicode="&#xe4;" 
d="M52 12q44 0 169 82l171 117q14 9 33 9q38 0 49 -36l5 -66q0 -25 1 -35.5t7 -25.5l1 -10q0 -27 -23 -27q-29 0 -35.5 26.5t-6.5 59.5l-3 57l-160 -111l-66 -40l-58 -31q-55 -25 -83 -25q-30 0 -47.5 17.5t-17.5 45.5q0 38 62.5 116t145.5 139l43 28l44 22q40 17 75 17
q56 0 56 -48q0 -35 -33 -35q-20 0 -37 17l-14 6q-69 -15 -177.5 -117.5t-108.5 -148.5zM302 409q-13 0 -23 9t-14 26q0 14 9 22.5t28 11.5q34 0 34 -34q0 -11 -8.5 -21.5t-25.5 -13.5zM453 409q-13 0 -23 9t-14 26q0 14 9 22.5t28 11.5q34 0 34 -34q0 -11 -8.5 -21.5
t-25.5 -13.5z" />
    <glyph glyph-name="aring" unicode="&#xe5;" 
d="M52 12q44 0 169 82l171 117q14 9 33 9q38 0 49 -36l5 -66q0 -25 1 -35.5t7 -25.5l1 -10q0 -27 -23 -27q-29 0 -35.5 26.5t-6.5 59.5l-3 57l-160 -111l-66 -40l-58 -31q-55 -25 -83 -25q-30 0 -47.5 17.5t-17.5 45.5q0 38 62.5 116t145.5 139l43 28l44 22q40 17 75 17
q56 0 56 -48q0 -35 -33 -35q-20 0 -37 17l-14 6q-69 -15 -177.5 -117.5t-108.5 -148.5zM307 487q0 38 28 66t66 28t66 -28t28 -66t-28 -66t-66 -28t-66 28t-28 66zM343 487q0 -24 17 -41t41 -17t41 17t17 41t-17 41t-41 17t-41 -17t-17 -41z" />
    <glyph glyph-name="ae" unicode="&#xe6;" horiz-adv-x="664" 
d="M52 -44q-25 0 -44.5 17.5t-19.5 45.5q0 39 62.5 118t143.5 137q48 33 89 50t75 17q56 0 56 -48q0 -35 -33 -35q-20 0 -37 17l-14 6q-69 -15 -177.5 -117.5t-108.5 -144.5q0 -9 15 -7q81 17 284 182l7 4l64 66q30 27 62 50q57 39 109 39q23 0 50 -18q21 -18 21 -48
q0 -60 -100 -136q-48 -33 -96 -53.5t-84 -20.5q-24 0 -44 10q-32 -47 -32 -71q0 -25 30 -25l15 -1q26 0 79 12t57 22q0 20 23 20q15 0 24 -12q2 -2 5 -15l-3 -15q-12 -29 -64.5 -48t-135.5 -19q-33 0 -59.5 17.5t-26.5 62.5q0 16 9 43q-63 -50 -113 -76t-88 -26zM600 289
q0 5 -16 8q-33 0 -100 -49q-30 -23 -62 -53q-16 -15 -29.5 -29.5t-27.5 -31.5l11 -1q44 -6 140 60q84 60 84 96z" />
    <glyph glyph-name="ccedilla" unicode="&#xe7;" horiz-adv-x="485" 
d="M50 -77q-24 6 -39 33q-10 22 -10 45q9 104 130 231q59 62 116 96t105 34q33 0 57 -23.5t24 -58.5q0 -10 -9 -24q-9 -11 -27 -16q-25 0 -41 29l-3 14q0 11 10 21l-12 2q-57 9 -179 -115q-54 -56 -84.5 -106.5t-30.5 -84.5q0 -17 15 -23q21 0 52.5 9.5t79.5 33.5l88 45
l97 57l14 4q14 0 26 -21l2 -10q0 -12 -14 -23q-203 -120 -314 -146l-6 -9l-17 -25q42 -18 42 -48q0 -31 -37 -56q-30 -18 -67 -18q-39 0 -39 22q0 11 10 18l10 3l11 -3l7 -1q15 0 39 12t24 20l-13 10l-19 9q-12 9 -13 25q0 12 15 38z" />
    <glyph glyph-name="egrave" unicode="&#xe8;" horiz-adv-x="448" 
d="M105 -9l13 -1q27 0 75 12q60 15 61 22q0 21 24 21q11 0 25 -12q2 -2 5 -15l-4 -16q-34 -67 -201 -67q-33 0 -58 16q-28 20 -28 64q0 43 32 93.5t94.5 113t118 97t97.5 34.5q26 0 48.5 -18.5t22.5 -47.5q0 -16 -5 -29t-9 -20t-12 -18q-24 -33 -74.5 -68.5t-94.5 -55
t-85 -19.5q-24 0 -44 10q-33 -45 -33 -72q0 -9 7 -17zM347 566l82 -107l5 -15q0 -15 -16 -22l-9 -2q-9 0 -19 10l-82 109l-4 12q0 15 16 22l10 3q7 0 17 -10zM374 288q-2 9 -16 9q-30 3 -97 -47t-122 -116l15 -3q51 0 137.5 63t82.5 94z" />
    <glyph glyph-name="eacute" unicode="&#xe9;" horiz-adv-x="448" 
d="M105 -9l13 -1q27 0 75 12q60 15 61 22q0 21 24 21q11 0 25 -12q2 -2 5 -15l-4 -16q-34 -67 -201 -67q-33 0 -58 16q-28 20 -28 64q0 43 32 93.5t94.5 113t118 97t97.5 34.5q26 0 48.5 -18.5t22.5 -47.5q0 -16 -5 -29t-9 -20t-12 -18q-24 -33 -74.5 -68.5t-94.5 -55
t-85 -19.5q-24 0 -44 10q-33 -45 -33 -72q0 -9 7 -17zM498 514l-156 -82l-11 -3q-23 0 -23 24q0 8 13 20l155 82l11 3q13 0 22 -18q6 -15 -11 -26zM374 288q-2 9 -16 9q-30 3 -97 -47t-122 -116l15 -3q51 0 137.5 63t82.5 94z" />
    <glyph glyph-name="ecircumflex" unicode="&#xea;" horiz-adv-x="448" 
d="M105 -9l13 -1q27 0 75 12q60 15 61 22q0 21 24 21q11 0 25 -12q2 -2 5 -15l-4 -16q-34 -67 -201 -67q-33 0 -58 16q-28 20 -28 64q0 43 32 93.5t94.5 113t118 97t97.5 34.5q26 0 48.5 -18.5t22.5 -47.5q0 -16 -5 -29t-9 -20t-12 -18q-24 -33 -74.5 -68.5t-94.5 -55
t-85 -19.5q-24 0 -44 10q-33 -45 -33 -72q0 -9 7 -17zM463 496q9 -40 17 -48l9 -18q0 -15 -15 -21l-10 -2q-6 0 -17 9q-11 14 -21 50q-30 -18 -110 -58l-9 -2q-20 0 -20 25q0 15 14 23l46 20l72 39l17 5q24 0 27 -22zM374 288q-2 9 -16 9q-30 3 -97 -47t-122 -116l15 -3
q51 0 137.5 63t82.5 94z" />
    <glyph glyph-name="edieresis" unicode="&#xeb;" horiz-adv-x="448" 
d="M105 -9l13 -1q27 0 75 12q60 15 61 22q0 21 24 21q11 0 25 -12q2 -2 5 -15l-4 -16q-34 -67 -201 -67q-33 0 -58 16q-28 20 -28 64q0 43 32 93.5t94.5 113t118 97t97.5 34.5q26 0 48.5 -18.5t22.5 -47.5q0 -16 -5 -29t-9 -20t-12 -18q-24 -33 -74.5 -68.5t-94.5 -55
t-85 -19.5q-24 0 -44 10q-33 -45 -33 -72q0 -9 7 -17zM313 420q-13 0 -23 9t-14 26q0 14 9 22.5t28 11.5q34 0 34 -34q0 -35 -34 -35zM463 420q-11 0 -23 9q-9 9 -13 26q0 15 9 22.5t27 11.5q35 0 35 -34q0 -35 -35 -35zM374 288q-2 9 -16 9q-30 3 -97 -47t-122 -116l15 -3
q51 0 137.5 63t82.5 94z" />
    <glyph glyph-name="igrave" unicode="&#xec;" horiz-adv-x="284" 
d="M94 6q3 -16 -4.5 -24.5t-24.5 -11.5q-17 0 -29 31q0 14 -2 18v18v16q0 46 53 109l93 103q9 9 20 10q15 0 25 -17l4 -14q0 -6 -8 -17l-87 -96q-43 -52 -43 -79v-23zM211 480l82 -107l5 -15q0 -15 -16 -22l-9 -2q-9 0 -19 10l-82 109l-4 12q0 15 16 22l10 2q6 0 17 -9z" />
    <glyph glyph-name="iacute" unicode="&#xed;" horiz-adv-x="284" 
d="M94 6q3 -16 -4.5 -24.5t-24.5 -11.5q-17 0 -29 31q0 14 -2 18v18v16q0 46 53 109l93 103q9 9 20 10q15 0 25 -17l4 -14q0 -6 -8 -17l-87 -96q-43 -52 -43 -79v-23zM379 471l-156 -82l-11 -3q-23 0 -23 23q0 14 14 21l155 82l11 3q13 0 22 -18q3 -13 -12 -26z" />
    <glyph glyph-name="icircumflex" unicode="&#xee;" horiz-adv-x="284" 
d="M94 6q3 -16 -4.5 -24.5t-24.5 -11.5q-17 0 -29 31q0 14 -2 18v18v16q0 46 53 109l93 103q9 9 20 10q15 0 25 -17l4 -14q0 -6 -8 -17l-87 -96q-43 -52 -43 -79v-23zM331 442q3 -29 18 -49q6 -6 7 -17q0 -15 -15 -21q-15 -5 -27 7q-10 13 -21 50l-46 -24l-64 -33l-9 -2
q-21 0 -21 24q0 12 15 23q19 6 45.5 19t73.5 40l17 5q23 0 27 -22z" />
    <glyph glyph-name="idieresis" unicode="&#xef;" horiz-adv-x="284" 
d="M94 6q3 -16 -4.5 -24.5t-24.5 -11.5q-17 0 -29 31q0 14 -2 18v18v16q0 46 53 109l93 103q9 9 20 10q15 0 25 -17l4 -14q0 -6 -8 -17l-87 -96q-43 -52 -43 -79v-23zM194 366q-11 0 -22 8.5t-15 26.5q0 12 9.5 21.5t27.5 12.5q34 0 34 -34q0 -35 -34 -35zM345 366
q-11 0 -22 8.5t-15 26.5q0 12 9.5 21.5t27.5 12.5q34 0 34 -34q0 -35 -34 -35z" />
    <glyph glyph-name="ntilde" unicode="&#xf1;" horiz-adv-x="692" 
d="M217 313q9 9 22 10q15 0 25 -16l5 -18l-3 -17q-15 -37 -68 -65q-18 -21 -42 -57l-50 -76q127 98 217 147q100 53 169 53q26 0 37 -5q15 -3 29 -17q27 -24 27 -62q0 -30 -15 -78l-14 -53q26 -3 26 -26q0 -20 -21 -29l-14 -2q-20 0 -34 13q-10 13 -13 31q0 41 14.5 83
t14.5 61q0 28 -35 28q-37 0 -95 -26q-33 -13 -64 -32q-33 -18 -78 -48q-140 -89 -175 -132q-15 -18 -32 -18q-11 0 -23 9q-9 9 -12 26q0 52 84 172q61 88 118 144zM462 445q15 -17 30 -20l7 5q10 7 18 16q18 21 29 21q12 0 21 -13l4 -12q0 -8 -4 -13q-32 -52 -70 -52
q-26 0 -67 36q-27 27 -38 28q-11 0 -41 -37q-8 -12 -20 -12q-22 0 -22 22q0 6 4 14q36 60 84 60q21 0 65 -43z" />
    <glyph glyph-name="ograve" unicode="&#xf2;" horiz-adv-x="466" 
d="M96 -78q-33 0 -59 16q-32 20 -32 64q0 71 74.5 164.5t161.5 105.5q30 66 110 66q42 0 65 -21.5t23 -57.5q0 -43 -31 -93q-16 -25 -38 -51.5t-55 -61.5q-62 -63 -117 -97t-102 -34zM347 555l82 -107l5 -15q0 -15 -16 -22l-9 -2q-9 0 -19 10l-82 109l-4 12q0 15 16 22l10 3
q7 0 17 -10zM97 -22q53 -9 171 110q59 59 87 101.5t28 68.5q-3 21 -33 24q-51 0 -69 -58q-5 -17 -26 -17q-8 0 -20 9q-42 0 -110 -86q-64 -82 -64 -127q0 -14 36 -25z" />
    <glyph glyph-name="oacute" unicode="&#xf3;" horiz-adv-x="466" 
d="M96 -78q-33 0 -59 16q-32 20 -32 64q0 71 74.5 164.5t161.5 105.5q30 66 110 66q42 0 65 -21.5t23 -57.5q0 -43 -31 -93q-16 -25 -38 -51.5t-55 -61.5q-62 -63 -117 -97t-102 -34zM498 503l-156 -82l-11 -3q-23 0 -23 24q0 8 13 20l155 82l11 3q13 0 22 -18
q6 -15 -11 -26zM97 -22q53 -9 171 110q59 59 87 101.5t28 68.5q-3 21 -33 24q-51 0 -69 -58q-5 -17 -26 -17q-8 0 -20 9q-42 0 -110 -86q-64 -82 -64 -127q0 -14 36 -25z" />
    <glyph glyph-name="ocircumflex" unicode="&#xf4;" horiz-adv-x="466" 
d="M96 -78q-33 0 -59 16q-32 20 -32 64q0 71 74.5 164.5t161.5 105.5q30 66 110 66q42 0 65 -21.5t23 -57.5q0 -43 -31 -93q-16 -25 -38 -51.5t-55 -61.5q-62 -63 -117 -97t-102 -34zM474 485q3 -29 18 -49q6 -6 7 -17q0 -15 -15 -21q-11 -3 -26 6l-22 51l-109 -57l-10 -2
q-20 0 -20 24q0 15 14 23q18 6 46 20t73 39l17 5q23 0 27 -22zM97 -22q53 -9 171 110q59 59 87 101.5t28 68.5q-3 21 -33 24q-51 0 -69 -58q-5 -17 -26 -17q-8 0 -20 9q-42 0 -110 -86q-64 -82 -64 -127q0 -14 36 -25z" />
    <glyph glyph-name="otilde" unicode="&#xf5;" horiz-adv-x="466" 
d="M96 -78q-33 0 -59 16q-32 20 -32 64q0 71 74.5 164.5t161.5 105.5q30 66 110 66q42 0 65 -21.5t23 -57.5q0 -43 -31 -93q-16 -25 -38 -51.5t-55 -61.5q-62 -63 -117 -97t-102 -34zM408 467q20 -21 31 -21q10 0 35 31q3 6 18 11q12 0 21 -13l4 -12q0 -8 -4 -13
q-30 -51 -70 -51q-31 0 -67 35q-27 27 -38 28q-11 0 -41 -36q-8 -12 -20 -12q-22 0 -22 21q0 6 4 14q37 61 84 61q21 0 65 -43zM97 -22q53 -9 171 110q59 59 87 101.5t28 68.5q-3 21 -33 24q-51 0 -69 -58q-5 -17 -26 -17q-8 0 -20 9q-42 0 -110 -86q-64 -82 -64 -127
q0 -14 36 -25z" />
    <glyph glyph-name="odieresis" unicode="&#xf6;" horiz-adv-x="466" 
d="M96 -78q-33 0 -59 16q-32 20 -32 64q0 71 74.5 164.5t161.5 105.5q30 66 110 66q42 0 65 -21.5t23 -57.5q0 -43 -31 -93q-16 -25 -38 -51.5t-55 -61.5q-62 -63 -117 -97t-102 -34zM323 409q-11 0 -23 9q-9 9 -13 26q0 15 9 22.5t27 11.5q35 0 35 -34q0 -11 -8.5 -21.5
t-26.5 -13.5zM474 409q-11 0 -23 9q-9 9 -13 26q0 15 9 22.5t27 11.5q35 0 35 -34q0 -11 -8.5 -21.5t-26.5 -13.5zM97 -22q53 -9 171 110q59 59 87 101.5t28 68.5q-3 21 -33 24q-51 0 -69 -58q-5 -17 -26 -17q-8 0 -20 9q-42 0 -110 -86q-64 -82 -64 -127q0 -14 36 -25z" />
    <glyph glyph-name="ugrave" unicode="&#xf9;" horiz-adv-x="608" 
d="M464 58l3 -36l-1 -23q-6 -32 -33 -38q-13 0 -22 8q-9 6 -12 22q0 70 34 147q-90 -60 -209.5 -114t-168.5 -54q-24 0 -40 17q-4 5 -7 13q-6 13 -6 27q0 22 13.5 49.5t43.5 67.5l94 117l3 19l9 34q8 23 39 23q10 0 16 -5q20 -12 20 -31q0 -15 -40 -68l-95 -121
q-47 -64 -47 -86q29 0 87 22.5t155 73.5q183 99 187 134q0 23 31 23q8 0 22 -6q15 -11 15 -29q0 -11 -8 -20q-56 -66 -83 -166zM347 512l82 -107l5 -15q0 -15 -16 -22l-9 -2q-9 0 -19 10l-82 109l-4 12q0 15 16 22l10 3q7 0 17 -10z" />
    <glyph glyph-name="uacute" unicode="&#xfa;" horiz-adv-x="608" 
d="M464 58l3 -36l-1 -23q-6 -32 -33 -38q-13 0 -22 8q-9 6 -12 22q0 70 34 147q-90 -60 -209.5 -114t-168.5 -54q-24 0 -40 17q-4 5 -7 13q-6 13 -6 27q0 22 13.5 49.5t43.5 67.5l94 117l3 19l9 34q8 23 39 23q10 0 16 -5q20 -12 20 -31q0 -15 -40 -68l-95 -121
q-47 -64 -47 -86q29 0 87 22.5t155 73.5q183 99 187 134q0 23 31 23q8 0 22 -6q15 -11 15 -29q0 -11 -8 -20q-56 -66 -83 -166zM530 449l-156 -82l-11 -3q-23 0 -23 24q0 8 13 20l156 82l11 3q13 0 22 -18q3 -13 -12 -26z" />
    <glyph glyph-name="ucircumflex" unicode="&#xfb;" horiz-adv-x="608" 
d="M464 58l3 -36l-1 -23q-6 -32 -33 -38q-13 0 -22 8q-9 6 -12 22q0 70 34 147q-90 -60 -209.5 -114t-168.5 -54q-24 0 -40 17q-4 5 -7 13q-6 13 -6 27q0 22 13.5 49.5t43.5 67.5l94 117l3 19l9 34q8 23 39 23q10 0 16 -5q20 -12 20 -31q0 -15 -40 -68l-95 -121
q-47 -64 -47 -86q29 0 87 22.5t155 73.5q183 99 187 134q0 23 31 23q8 0 22 -6q15 -11 15 -29q0 -11 -8 -20q-56 -66 -83 -166zM485 463q5 -33 18 -48q6 -6 7 -17q0 -15 -15 -21l-10 -2q-8 0 -15 7l-8 16l-15 35l-46 -24l-64 -33l-9 -2q-20 0 -20 24q0 15 14 23q20 7 119 60
l16 5q24 0 28 -23z" />
    <glyph glyph-name="udieresis" unicode="&#xfc;" horiz-adv-x="608" 
d="M464 58l3 -36l-1 -23q-6 -32 -33 -38q-13 0 -22 8q-9 6 -12 22q0 70 34 147q-90 -60 -209.5 -114t-168.5 -54q-24 0 -40 17q-4 5 -7 13q-6 13 -6 27q0 22 13.5 49.5t43.5 67.5l94 117l3 19l9 34q8 23 39 23q10 0 16 -5q20 -12 20 -31q0 -15 -40 -68l-95 -121
q-47 -64 -47 -86q29 0 87 22.5t155 73.5q183 99 187 134q0 23 31 23q8 0 22 -6q15 -11 15 -29q0 -11 -8 -20q-56 -66 -83 -166zM334 377q-11 0 -22 8.5t-15 26.5q0 12 9.5 21.5t27.5 12.5q11 0 21 -8.5t14 -25.5q0 -15 -9 -24q-8 -6 -26 -11zM485 377q-11 0 -22 8.5
t-15 26.5q0 12 9.5 21.5t27.5 12.5q34 0 34 -34q0 -35 -34 -35z" />
    <glyph glyph-name="ydieresis" unicode="&#xff;" 
d="M103 67q13 -2 139 83q145 97 206 120l18 3q15 0 32 -12q12 -12 15 -29q0 -54 -82 -184q-86 -139 -200 -256q-132 -140 -255 -198l-20 -5q-27 0 -33 25q-3 16 24 38q16 11 53 17q124 74 284 270q131 167 169 273q-41 -18 -191 -118q-54 -37 -100 -62q-39 -21 -61 -21
q-30 0 -47.5 18.5t-17.5 48.5q0 39 24.5 89.5t73.5 116.5q4 6 21 11q15 0 25 -14l3 -13q0 -9 -6 -18q-41 -59 -63 -102t-22 -70q0 -7 11 -11zM280 366q-11 0 -23 9q-9 9 -13 26q0 15 9 22.5t27 11.5q35 0 35 -34q0 -35 -35 -35zM431 366q-11 0 -22 8.5t-15 26.5
q0 12 9.5 21.5t27.5 12.5q11 0 21 -8.5t14 -25.5q0 -15 -9 -24q-8 -6 -26 -11z" />
    <glyph glyph-name="OE" unicode="&#x152;" horiz-adv-x="1147" 
d="M191 -110q-72 0 -111 52q-30 42 -30 105q0 52 18 103q9 26 24 53t38 58q76 109 204 187q-9 12 -6 24q15 58 125 113q45 21 101.5 36t104.5 15q40 0 75 -12t59.5 -36t37 -51.5t12.5 -61.5q67 58 206.5 116t254.5 58q125 0 148 -66l3 -24q0 -45 -44 -86l-19 -8q-12 0 -21 9
t-9 21q0 7 9 19q25 25 25 44l-1 10q-5 26 -91 26q-88 0 -203 -42t-196.5 -99t-81.5 -100q0 -39 66 -63q59 -21 142 -21l37 1q32 0 32 -29q0 -23 -26 -29q-54 0 -120 -15l-60 -16l-73 -22q-193 -60 -193 -135q0 -47 94 -47q103 0 367 75l10 1q19 0 26 -25q3 -21 -20 -32
q-249 -75 -383 -75q-149 0 -149 101q0 33 19 64q-98 -79 -214 -140q-48 -23 -101 -39.5t-86 -16.5zM106 47q0 -24 4.5 -41.5t13.5 -30.5t27 -21t40 -8q43 0 100 21.5t129 67.5q147 90 255 210q57 64 84.5 122t27.5 99q0 54 -33.5 84t-94.5 30q-32 0 -40 -2q-11 0 -40 -7
t-79 -29q-85 -37 -111 -68q27 0 27 -29q0 -15 -15 -24q-122 -60 -215 -178q-40 -52 -60 -104t-20 -92zM669 157q31 18 85.5 38t124.5 39q-69 21 -96 61q-42 -69 -114 -138z" />
    <glyph glyph-name="oe" unicode="&#x153;" horiz-adv-x="694" 
d="M440 267q48 42 89 63q20 11 39.5 17t37.5 6q25 0 48 -17.5t23 -48.5q0 -63 -101 -136q-48 -36 -95.5 -55t-83.5 -19q-28 0 -45 10q-32 -49 -32 -71q0 -12 6.5 -18.5t23.5 -6.5h13q29 0 82.5 12t55.5 21q0 21 23 21q15 0 25 -11l5 -16l-3 -16q-12 -29 -65.5 -48
t-135.5 -19q-32 0 -55 13q-31 20 -31 57q-97 -83 -168 -83q-37 0 -64 20q-27 18 -27 60q0 38 18.5 78t57.5 89q75 96 160 103q32 66 110 66q70 0 89 -71zM97 -22q57 -6 175 112q58 58 84.5 100t26.5 66q0 15 -8 20q-6 6 -25 6l-21 -3q-8 -2 -20 -11q-18 -15 -28 -44
q-6 -18 -26 -18q-9 0 -20 10q-42 0 -112 -86q-62 -79 -62 -127q0 -15 6 -18zM621 289q-2 2 -4.5 3.5t-11.5 4.5q-33 0 -98.5 -47.5t-120.5 -115.5l11 -1q44 -6 140 60q84 62 84 96z" />
    <glyph glyph-name="Ydieresis" unicode="&#x178;" horiz-adv-x="841" 
d="M434 533q-9 -35 -165 -253q-142 -196 -142 -247l3 -6l6 -1q16 0 29 4q17 3 41 15t54 29t61 37l257 181q149 107 225 151l24 10l24 3q26 -3 26 -51q0 -73 -164 -288q-76 -104 -159.5 -198t-172.5 -174q-45 -42 -96 -82q-37 -29 -84 -61q-37 -23 -72 -36q-6 -2 -25 -7.5
t-34 -5.5l-25 1q-7 0 -18 7q-14 6 -31 27q-19 30 -19 71q0 37 11 62q9 24 28 37l16 5q17 0 28 -24q6 -24 -18 -33q-9 -23 -9 -47q0 -25 5.5 -34.5t31.5 -15.5q30 0 78 25t113 79q124 100 255 250q122 137 204 256q74 109 96 166q-33 -19 -112 -73l-202 -145
q-135 -99 -227 -148q-23 -12 -43 -21t-37 -15q-37 -13 -59 -13q-23 0 -47 18q-18 18 -18 44q0 22 14.5 58t48.5 93l48 73l74 102q83 113 106 151q-34 -21 -53 -26q-27 0 -27 27q0 15 11 23l29 17l26 16q22 11 41 15q21 3 33 -10q12 -11 13 -28zM631 595q-11 0 -23 9
q-8 9 -13 25q0 14 9 23t27 12q35 0 35 -35q0 -34 -35 -34zM782 595q-11 0 -23 9q-8 9 -13 25q0 14 9 23t27 12q35 0 35 -35q0 -34 -35 -34z" />
    <glyph glyph-name="endash" unicode="&#x2013;" horiz-adv-x="537" 
d="M124 218l153 4l142 1q31 0 31 -29q0 -21 -28 -25l-255 -3q-32 -17 -55 -17q-44 0 -44 31q0 29 56 38z" />
    <glyph glyph-name="emdash" unicode="&#x2014;" horiz-adv-x="819" 
d="M707 167h-484l-74 -3q-26 -3 -46 -9l-9 -2q-27 0 -27 29q0 15 19 22q5 2 22 5l34 6l83 4h482q26 0 26 -25q0 -27 -26 -27z" />
    <glyph glyph-name="quoteleft" unicode="&#x2018;" horiz-adv-x="216" 
d="M279 490q0 35 44 89q34 40 91 89q8 6 17 6q14 0 25 -18l2 -11q0 -12 -12 -21q-53 -39 -95 -101l-4 -40q-6 -20 -25 -26q-19 0 -30.5 8.5t-12.5 24.5z" />
    <glyph glyph-name="quoteright" unicode="&#x2019;" horiz-adv-x="216" 
d="M468 655q0 -33 -44 -89q-34 -40 -91 -89q-8 -6 -17 -6q-11 0 -20 8q-3 4 -8 21q0 12 13 22q60 42 94 101v13l6 30q6 23 25 23q18 0 30 -9t12 -25z" />
    <glyph glyph-name="quotedblleft" unicode="&#x201c;" horiz-adv-x="409" 
d="M485 490q0 35 44 89q34 40 91 89q8 6 17 6q14 0 25 -18l2 -11q0 -12 -12 -21q-53 -39 -95 -101l-4 -40q-6 -20 -25 -26q-19 0 -30.5 8.5t-12.5 24.5zM304 490q0 35 44 89q34 40 91 89q8 6 17 6q14 0 25 -18l2 -11q0 -12 -12 -21q-56 -42 -95 -101l-4 -40q-6 -20 -25 -26
q-19 0 -30.5 8.5t-12.5 24.5z" />
    <glyph glyph-name="quotedblright" unicode="&#x201d;" horiz-adv-x="409" 
d="M470 655q0 -33 -44 -89q-34 -40 -91 -89q-8 -6 -17 -6q-7 0 -19 9q-3 4 -8 20q0 8 12 22q56 42 95 101l4 39q6 27 26 27q18 0 30 -9t12 -25zM651 655q0 -33 -44 -89q-34 -40 -91 -89q-8 -6 -17 -6q-7 0 -19 9q-3 4 -8 20q0 8 12 22q56 42 95 101l4 39q6 27 26 27
q18 0 30 -9t12 -25z" />
    <glyph glyph-name="quotedblbase" unicode="&#x201e;" horiz-adv-x="409" 
d="M115 78q0 -35 -44 -89q-19 -25 -41 -46q-19 -21 -49 -43l-18 -7q-27 0 -27 29q0 8 12 22q58 42 95 101l4 40q6 20 25 26q18 0 29 -7.5t14 -25.5zM296 78q0 -35 -44 -89q-19 -25 -41 -46q-19 -21 -49 -43l-18 -7q-27 0 -27 29q0 8 12 22q58 42 95 101l4 40q6 20 25 26
q18 0 29 -7.5t14 -25.5z" />
    <glyph glyph-name="bullet" unicode="&#x2022;" horiz-adv-x="323" 
d="M97 131q-29 29 -29 68t29 68t68 29t68 -29t29 -68t-29 -68t-68 -29t-68 29z" />
    <glyph glyph-name="guilsinglleft" unicode="&#x2039;" horiz-adv-x="222" 
d="M99 22q2 -9 -4.5 -16t-20.5 -11q-12 0 -20 18l-15 71q-9 39 -9 59q0 18 19 44l85 101q6 9 17 9q12 0 21 -12l3 -11q0 -6 -5 -14q-52 -60 -96 -118l9 -44z" />
    <glyph glyph-name="guilsinglright" unicode="&#x203a;" horiz-adv-x="231" 
d="M112 272q-3 26 22 26q14 0 23 -18q23 -118 23 -142q-3 -10 -37 -56l-64 -76q-6 -9 -19 -10q-24 0 -24 23q0 6 5 14l96 118l-9 48z" />
    <glyph glyph-name="radical" unicode="&#x221a;" horiz-adv-x="1120" 
d="M237 313h59l-120 -313h-56l-115 313h61l81 -255zM432 0h-58v430h58v-208l209 208h80l-179 -174l183 -256h-75l-150 216l-68 -65v-151zM832 125l-45 -125h-60l161 430h66l158 -430h-65l-42 125h-173zM984 177l-64 189l-70 -189h134z" />
  </font>
</defs>
</svg>
